<svg xmlns="http://www.w3.org/2000/svg" version="1.1" xmlns:xlink="http://www.w3.org/1999/xlink" xmlns:svgjs="http://svgjs.dev/svgjs" width="1440" height="560" preserveAspectRatio="none" viewBox="0 0 1440 560"><g mask="url(&quot;#SvgjsMask1350&quot;)" fill="none"><rect width="1440" height="560" x="0" y="0" fill="url(&quot;#SvgjsLinearGradient1351&quot;)"></rect><g mask="url(&quot;#SvgjsMask1352&quot;)"><path d="M139.5 108.5L387.5 108.5L728.5 449.5" stroke-width="5.17" stroke="rgba(133, 132, 203, 1)"></path><path d="M131.75 108.5 a7.75 7.75 0 1 0 15.5 0 a7.75 7.75 0 1 0 -15.5 0zM720.75 449.5 a7.75 7.75 0 1 0 15.5 0 a7.75 7.75 0 1 0 -15.5 0z" fill="rgba(133, 132, 203, 1)"></path><path d="M1007.5 511.5L1069.5 573.5L1441.5 573.5" stroke-width="5.17" stroke="rgba(133, 132, 203, 1)"></path><path d="M999.75 511.5 a7.75 7.75 0 1 0 15.5 0 a7.75 7.75 0 1 0 -15.5 0zM1433.75 573.5 a7.75 7.75 0 1 0 15.5 0 a7.75 7.75 0 1 0 -15.5 0z" fill="rgba(133, 132, 203, 1)"></path><path d="M1131.5 542.5L1131.5 449.5L697.5 15.5L635.5 15.5" stroke-width="5.17" stroke="rgba(133, 132, 203, 1)"></path><path d="M1123.75 542.5 a7.75 7.75 0 1 0 15.5 0 a7.75 7.75 0 1 0 -15.5 0zM627.75 15.5 a7.75 7.75 0 1 0 15.5 0 a7.75 7.75 0 1 0 -15.5 0z" fill="rgba(133, 132, 203, 1)"></path><path d="M325.5 387.5L325.5 139.5" stroke-width="5.17" stroke="rgba(133, 132, 203, 1)"></path><path d="M317.75 387.5 a7.75 7.75 0 1 0 15.5 0 a7.75 7.75 0 1 0 -15.5 0zM317.75 139.5 a7.75 7.75 0 1 0 15.5 0 a7.75 7.75 0 1 0 -15.5 0z" fill="rgba(133, 132, 203, 1)"></path><path d="M294.5 263.5L294.5 573.5" stroke-width="5.17" stroke="rgba(133, 132, 203, 1)"></path><path d="M286.75 263.5 a7.75 7.75 0 1 0 15.5 0 a7.75 7.75 0 1 0 -15.5 0zM286.75 573.5 a7.75 7.75 0 1 0 15.5 0 a7.75 7.75 0 1 0 -15.5 0z" fill="rgba(133, 132, 203, 1)"></path><path d="M1007.5 139.5L1007.5 15.5" stroke-width="5.17" stroke="rgba(133, 132, 203, 1)"></path><path d="M999.75 139.5 a7.75 7.75 0 1 0 15.5 0 a7.75 7.75 0 1 0 -15.5 0zM999.75 15.5 a7.75 7.75 0 1 0 15.5 0 a7.75 7.75 0 1 0 -15.5 0z" fill="rgba(133, 132, 203, 1)"></path><path d="M449.5 542.5L511.5 542.5L542.5 511.5L790.5 511.5L976.5 325.5" stroke-width="5.17" stroke="rgba(133, 132, 203, 1)"></path><path d="M441.75 542.5 a7.75 7.75 0 1 0 15.5 0 a7.75 7.75 0 1 0 -15.5 0zM968.75 325.5 a7.75 7.75 0 1 0 15.5 0 a7.75 7.75 0 1 0 -15.5 0z" fill="rgba(133, 132, 203, 1)"></path><path d="M666.5 449.5L635.5 480.5L325.5 480.5" stroke-width="5.17" stroke="rgba(133, 132, 203, 1)"></path><path d="M658.75 449.5 a7.75 7.75 0 1 0 15.5 0 a7.75 7.75 0 1 0 -15.5 0zM317.75 480.5 a7.75 7.75 0 1 0 15.5 0 a7.75 7.75 0 1 0 -15.5 0z" fill="rgba(133, 132, 203, 1)"></path><path d="M387.5 232.5L511.5 356.5L604.5 356.5L635.5 387.5L635.5 449.5" stroke-width="5.17" stroke="rgba(133, 132, 203, 1)"></path><path d="M379.75 232.5 a7.75 7.75 0 1 0 15.5 0 a7.75 7.75 0 1 0 -15.5 0zM627.75 449.5 a7.75 7.75 0 1 0 15.5 0 a7.75 7.75 0 1 0 -15.5 0z" fill="rgba(133, 132, 203, 1)"></path><path d="M1038.5 77.5L1038.5 15.5" stroke-width="5.17" stroke="rgba(133, 132, 203, 1)"></path><path d="M1030.75 77.5 a7.75 7.75 0 1 0 15.5 0 a7.75 7.75 0 1 0 -15.5 0zM1030.75 15.5 a7.75 7.75 0 1 0 15.5 0 a7.75 7.75 0 1 0 -15.5 0z" fill="rgba(133, 132, 203, 1)"></path><path d="M1255.5 263.5L1441.5 449.5L1441.5 542.5" stroke-width="5.17" stroke="rgba(133, 132, 203, 1)"></path><path d="M1247.75 263.5 a7.75 7.75 0 1 0 15.5 0 a7.75 7.75 0 1 0 -15.5 0zM1433.75 542.5 a7.75 7.75 0 1 0 15.5 0 a7.75 7.75 0 1 0 -15.5 0z" fill="rgba(133, 132, 203, 1)"></path><path d="M1100.5 170.5L1255.5 15.5L1441.5 15.5" stroke-width="5.17" stroke="rgba(133, 132, 203, 1)"></path><path d="M1092.75 170.5 a7.75 7.75 0 1 0 15.5 0 a7.75 7.75 0 1 0 -15.5 0zM1433.75 15.5 a7.75 7.75 0 1 0 15.5 0 a7.75 7.75 0 1 0 -15.5 0z" fill="rgba(133, 132, 203, 1)"></path><path d="M418.5 573.5L418.5 511.5" stroke-width="5.17" stroke="rgba(133, 132, 203, 1)"></path><path d="M410.75 573.5 a7.75 7.75 0 1 0 15.5 0 a7.75 7.75 0 1 0 -15.5 0zM410.75 511.5 a7.75 7.75 0 1 0 15.5 0 a7.75 7.75 0 1 0 -15.5 0z" fill="rgba(133, 132, 203, 1)"></path><path d="M1348.5 170.5L1348.5 201.5L1441.5 294.5L1441.5 418.5" stroke-width="5.17" stroke="rgba(133, 132, 203, 1)"></path><path d="M1340.75 170.5 a7.75 7.75 0 1 0 15.5 0 a7.75 7.75 0 1 0 -15.5 0zM1433.75 418.5 a7.75 7.75 0 1 0 15.5 0 a7.75 7.75 0 1 0 -15.5 0z" fill="rgba(133, 132, 203, 1)"></path><path d="M852.5 511.5L790.5 573.5L449.5 573.5" stroke-width="5.17" stroke="rgba(133, 132, 203, 1)"></path><path d="M844.75 511.5 a7.75 7.75 0 1 0 15.5 0 a7.75 7.75 0 1 0 -15.5 0zM441.75 573.5 a7.75 7.75 0 1 0 15.5 0 a7.75 7.75 0 1 0 -15.5 0z" fill="rgba(133, 132, 203, 1)"></path><path d="M1100.5 15.5L1100.5 77.5L945.5 232.5" stroke-width="5.17" stroke="rgba(133, 132, 203, 1)"></path><path d="M1092.75 15.5 a7.75 7.75 0 1 0 15.5 0 a7.75 7.75 0 1 0 -15.5 0zM937.75 232.5 a7.75 7.75 0 1 0 15.5 0 a7.75 7.75 0 1 0 -15.5 0z" fill="rgba(133, 132, 203, 1)"></path><path d="M790.5 170.5L728.5 232.5L542.5 232.5L325.5 15.5L232.5 15.5L201.5 46.5" stroke-width="5.17" stroke="rgba(133, 132, 203, 1)"></path><path d="M782.75 170.5 a7.75 7.75 0 1 0 15.5 0 a7.75 7.75 0 1 0 -15.5 0zM193.75 46.5 a7.75 7.75 0 1 0 15.5 0 a7.75 7.75 0 1 0 -15.5 0z" fill="rgba(133, 132, 203, 1)"></path><path d="M1193.5 232.5L1317.5 108.5L1317.5 46.5" stroke-width="5.17" stroke="rgba(133, 132, 203, 1)"></path><path d="M1185.75 232.5 a7.75 7.75 0 1 0 15.5 0 a7.75 7.75 0 1 0 -15.5 0zM1309.75 46.5 a7.75 7.75 0 1 0 15.5 0 a7.75 7.75 0 1 0 -15.5 0z" fill="rgba(133, 132, 203, 1)"></path><path d="M759.5 480.5L790.5 480.5L945.5 325.5L945.5 294.5L883.5 232.5L759.5 232.5L666.5 325.5L635.5 325.5L604.5 294.5L604.5 263.5" stroke-width="5.17" stroke="rgba(133, 132, 203, 1)"></path><path d="M751.75 480.5 a7.75 7.75 0 1 0 15.5 0 a7.75 7.75 0 1 0 -15.5 0zM596.75 263.5 a7.75 7.75 0 1 0 15.5 0 a7.75 7.75 0 1 0 -15.5 0z" fill="rgba(133, 132, 203, 1)"></path><path d="M15.5 511.5L201.5 511.5L232.5 542.5L263.5 542.5" stroke-width="5.17" stroke="rgba(133, 132, 203, 1)"></path><path d="M7.75 511.5 a7.75 7.75 0 1 0 15.5 0 a7.75 7.75 0 1 0 -15.5 0zM255.75 542.5 a7.75 7.75 0 1 0 15.5 0 a7.75 7.75 0 1 0 -15.5 0z" fill="rgba(133, 132, 203, 1)"></path><path d="M294.5 232.5L294.5 139.5" stroke-width="5.17" stroke="rgba(133, 132, 203, 1)"></path><path d="M286.75 232.5 a7.75 7.75 0 1 0 15.5 0 a7.75 7.75 0 1 0 -15.5 0zM286.75 139.5 a7.75 7.75 0 1 0 15.5 0 a7.75 7.75 0 1 0 -15.5 0z" fill="rgba(133, 132, 203, 1)"></path><path d="M759.5 449.5L914.5 294.5" stroke-width="5.17" stroke="rgba(133, 132, 203, 1)"></path><path d="M751.75 449.5 a7.75 7.75 0 1 0 15.5 0 a7.75 7.75 0 1 0 -15.5 0zM906.75 294.5 a7.75 7.75 0 1 0 15.5 0 a7.75 7.75 0 1 0 -15.5 0z" fill="rgba(133, 132, 203, 1)"></path><path d="M790.5 294.5L821.5 325.5L821.5 356.5L759.5 418.5L728.5 418.5L666.5 356.5" stroke-width="5.17" stroke="rgba(133, 132, 203, 1)"></path><path d="M782.75 294.5 a7.75 7.75 0 1 0 15.5 0 a7.75 7.75 0 1 0 -15.5 0zM658.75 356.5 a7.75 7.75 0 1 0 15.5 0 a7.75 7.75 0 1 0 -15.5 0z" fill="rgba(133, 132, 203, 1)"></path><path d="M1069.5 170.5L1069.5 294.5L1038.5 325.5" stroke-width="5.17" stroke="rgba(133, 132, 203, 1)"></path><path d="M1061.75 170.5 a7.75 7.75 0 1 0 15.5 0 a7.75 7.75 0 1 0 -15.5 0zM1030.75 325.5 a7.75 7.75 0 1 0 15.5 0 a7.75 7.75 0 1 0 -15.5 0z" fill="rgba(133, 132, 203, 1)"></path><path d="M139.5 46.5L108.5 15.5L15.5 15.5" stroke-width="5.17" stroke="rgba(133, 132, 203, 1)"></path><path d="M131.75 46.5 a7.75 7.75 0 1 0 15.5 0 a7.75 7.75 0 1 0 -15.5 0zM7.75 15.5 a7.75 7.75 0 1 0 15.5 0 a7.75 7.75 0 1 0 -15.5 0z" fill="rgba(133, 132, 203, 1)"></path><path d="M976.5 232.5L1038.5 170.5" stroke-width="5.17" stroke="rgba(133, 132, 203, 1)"></path><path d="M968.75 232.5 a7.75 7.75 0 1 0 15.5 0 a7.75 7.75 0 1 0 -15.5 0zM1030.75 170.5 a7.75 7.75 0 1 0 15.5 0 a7.75 7.75 0 1 0 -15.5 0z" fill="rgba(133, 132, 203, 1)"></path><path d="M976.5 418.5L976.5 356.5" stroke-width="5.17" stroke="rgba(133, 132, 203, 1)"></path><path d="M968.75 418.5 a7.75 7.75 0 1 0 15.5 0 a7.75 7.75 0 1 0 -15.5 0zM968.75 356.5 a7.75 7.75 0 1 0 15.5 0 a7.75 7.75 0 1 0 -15.5 0z" fill="rgba(133, 132, 203, 1)"></path><path d="M1348.5 77.5L1348.5 139.5L1224.5 263.5L1100.5 263.5" stroke-width="5.17" stroke="rgba(133, 132, 203, 1)"></path><path d="M1340.75 77.5 a7.75 7.75 0 1 0 15.5 0 a7.75 7.75 0 1 0 -15.5 0zM1092.75 263.5 a7.75 7.75 0 1 0 15.5 0 a7.75 7.75 0 1 0 -15.5 0z" fill="rgba(133, 132, 203, 1)"></path><path d="M418.5 387.5L418.5 356.5L449.5 325.5" stroke-width="5.17" stroke="rgba(133, 132, 203, 1)"></path><path d="M410.75 387.5 a7.75 7.75 0 1 0 15.5 0 a7.75 7.75 0 1 0 -15.5 0zM441.75 325.5 a7.75 7.75 0 1 0 15.5 0 a7.75 7.75 0 1 0 -15.5 0z" fill="rgba(133, 132, 203, 1)"></path><path d="M1286.5 449.5L1193.5 449.5L1100.5 356.5L1069.5 356.5" stroke-width="5.17" stroke="rgba(133, 132, 203, 1)"></path><path d="M1278.75 449.5 a7.75 7.75 0 1 0 15.5 0 a7.75 7.75 0 1 0 -15.5 0zM1061.75 356.5 a7.75 7.75 0 1 0 15.5 0 a7.75 7.75 0 1 0 -15.5 0z" fill="rgba(133, 132, 203, 1)"></path><path d="M1348.5 542.5L1162.5 542.5" stroke-width="5.17" stroke="rgba(133, 132, 203, 1)"></path><path d="M1340.75 542.5 a7.75 7.75 0 1 0 15.5 0 a7.75 7.75 0 1 0 -15.5 0zM1154.75 542.5 a7.75 7.75 0 1 0 15.5 0 a7.75 7.75 0 1 0 -15.5 0z" fill="rgba(133, 132, 203, 1)"></path><path d="M139.5 480.5L15.5 480.5" stroke-width="5.17" stroke="rgba(133, 132, 203, 1)"></path><path d="M131.75 480.5 a7.75 7.75 0 1 0 15.5 0 a7.75 7.75 0 1 0 -15.5 0zM7.75 480.5 a7.75 7.75 0 1 0 15.5 0 a7.75 7.75 0 1 0 -15.5 0z" fill="rgba(133, 132, 203, 1)"></path><path d="M263.5 232.5L263.5 139.5" stroke-width="5.17" stroke="rgba(133, 132, 203, 1)"></path><path d="M255.75 232.5 a7.75 7.75 0 1 0 15.5 0 a7.75 7.75 0 1 0 -15.5 0zM255.75 139.5 a7.75 7.75 0 1 0 15.5 0 a7.75 7.75 0 1 0 -15.5 0z" fill="rgba(133, 132, 203, 1)"></path><path d="M232.5 201.5L232.5 387.5L170.5 449.5L170.5 480.5" stroke-width="5.17" stroke="rgba(133, 132, 203, 1)"></path><path d="M224.75 201.5 a7.75 7.75 0 1 0 15.5 0 a7.75 7.75 0 1 0 -15.5 0zM162.75 480.5 a7.75 7.75 0 1 0 15.5 0 a7.75 7.75 0 1 0 -15.5 0z" fill="rgba(133, 132, 203, 1)"></path><path d="M418.5 232.5L511.5 325.5L573.5 325.5" stroke-width="5.17" stroke="rgba(133, 132, 203, 1)"></path><path d="M410.75 232.5 a7.75 7.75 0 1 0 15.5 0 a7.75 7.75 0 1 0 -15.5 0zM565.75 325.5 a7.75 7.75 0 1 0 15.5 0 a7.75 7.75 0 1 0 -15.5 0z" fill="rgba(133, 132, 203, 1)"></path><path d="M1069.5 418.5L1100.5 449.5L1100.5 542.5" stroke-width="5.17" stroke="rgba(133, 132, 203, 1)"></path><path d="M1061.75 418.5 a7.75 7.75 0 1 0 15.5 0 a7.75 7.75 0 1 0 -15.5 0zM1092.75 542.5 a7.75 7.75 0 1 0 15.5 0 a7.75 7.75 0 1 0 -15.5 0z" fill="rgba(133, 132, 203, 1)"></path><path d="M1224.5 418.5L1379.5 418.5L1410.5 449.5L1410.5 542.5" stroke-width="5.17" stroke="rgba(133, 132, 203, 1)"></path><path d="M1216.75 418.5 a7.75 7.75 0 1 0 15.5 0 a7.75 7.75 0 1 0 -15.5 0zM1402.75 542.5 a7.75 7.75 0 1 0 15.5 0 a7.75 7.75 0 1 0 -15.5 0z" fill="rgba(133, 132, 203, 1)"></path><path d="M914.5 15.5L976.5 77.5L976.5 170.5L945.5 201.5L914.5 201.5L728.5 15.5" stroke-width="5.17" stroke="rgba(133, 132, 203, 1)"></path><path d="M906.75 15.5 a7.75 7.75 0 1 0 15.5 0 a7.75 7.75 0 1 0 -15.5 0zM720.75 15.5 a7.75 7.75 0 1 0 15.5 0 a7.75 7.75 0 1 0 -15.5 0z" fill="rgba(133, 132, 203, 1)"></path><path d="M356.5 263.5L356.5 170.5L387.5 139.5" stroke-width="5.17" stroke="rgba(133, 132, 203, 1)"></path><path d="M348.75 263.5 a7.75 7.75 0 1 0 15.5 0 a7.75 7.75 0 1 0 -15.5 0zM379.75 139.5 a7.75 7.75 0 1 0 15.5 0 a7.75 7.75 0 1 0 -15.5 0z" fill="rgba(133, 132, 203, 1)"></path><path d="M511.5 139.5L511.5 15.5" stroke-width="5.17" stroke="rgba(133, 132, 203, 1)"></path><path d="M503.75 139.5 a7.75 7.75 0 1 0 15.5 0 a7.75 7.75 0 1 0 -15.5 0zM503.75 15.5 a7.75 7.75 0 1 0 15.5 0 a7.75 7.75 0 1 0 -15.5 0z" fill="rgba(133, 132, 203, 1)"></path><path d="M201.5 294.5L15.5 294.5" stroke-width="5.17" stroke="rgba(133, 132, 203, 1)"></path><path d="M193.75 294.5 a7.75 7.75 0 1 0 15.5 0 a7.75 7.75 0 1 0 -15.5 0zM7.75 294.5 a7.75 7.75 0 1 0 15.5 0 a7.75 7.75 0 1 0 -15.5 0z" fill="rgba(133, 132, 203, 1)"></path><path d="M418.5 325.5L418.5 294.5L387.5 263.5" stroke-width="5.17" stroke="rgba(133, 132, 203, 1)"></path><path d="M410.75 325.5 a7.75 7.75 0 1 0 15.5 0 a7.75 7.75 0 1 0 -15.5 0zM379.75 263.5 a7.75 7.75 0 1 0 15.5 0 a7.75 7.75 0 1 0 -15.5 0z" fill="rgba(133, 132, 203, 1)"></path><path d="M976.5 511.5L976.5 449.5L1038.5 387.5" stroke-width="5.17" stroke="rgba(133, 132, 203, 1)"></path><path d="M968.75 511.5 a7.75 7.75 0 1 0 15.5 0 a7.75 7.75 0 1 0 -15.5 0zM1030.75 387.5 a7.75 7.75 0 1 0 15.5 0 a7.75 7.75 0 1 0 -15.5 0z" fill="rgba(133, 132, 203, 1)"></path><path d="M1193.5 325.5L1224.5 294.5L1255.5 294.5L1348.5 387.5" stroke-width="5.17" stroke="rgba(133, 132, 203, 1)"></path><path d="M1185.75 325.5 a7.75 7.75 0 1 0 15.5 0 a7.75 7.75 0 1 0 -15.5 0zM1340.75 387.5 a7.75 7.75 0 1 0 15.5 0 a7.75 7.75 0 1 0 -15.5 0z" fill="rgba(133, 132, 203, 1)"></path><path d="M108.5 46.5L139.5 77.5L356.5 77.5" stroke-width="5.17" stroke="rgba(133, 132, 203, 1)"></path><path d="M100.75 46.5 a7.75 7.75 0 1 0 15.5 0 a7.75 7.75 0 1 0 -15.5 0zM348.75 77.5 a7.75 7.75 0 1 0 15.5 0 a7.75 7.75 0 1 0 -15.5 0z" fill="rgba(133, 132, 203, 1)"></path><path d="M1317.5 294.5L1286.5 263.5L1286.5 232.5L1317.5 201.5" stroke-width="5.17" stroke="rgba(133, 132, 203, 1)"></path><path d="M1309.75 294.5 a7.75 7.75 0 1 0 15.5 0 a7.75 7.75 0 1 0 -15.5 0zM1309.75 201.5 a7.75 7.75 0 1 0 15.5 0 a7.75 7.75 0 1 0 -15.5 0z" fill="rgba(133, 132, 203, 1)"></path><path d="M108.5 573.5L15.5 573.5" stroke-width="5.17" stroke="rgba(133, 132, 203, 1)"></path><path d="M100.75 573.5 a7.75 7.75 0 1 0 15.5 0 a7.75 7.75 0 1 0 -15.5 0zM7.75 573.5 a7.75 7.75 0 1 0 15.5 0 a7.75 7.75 0 1 0 -15.5 0z" fill="rgba(133, 132, 203, 1)"></path><path d="M15.5 263.5L139.5 139.5L232.5 139.5" stroke-width="5.17" stroke="rgba(133, 132, 203, 1)"></path><path d="M7.75 263.5 a7.75 7.75 0 1 0 15.5 0 a7.75 7.75 0 1 0 -15.5 0zM224.75 139.5 a7.75 7.75 0 1 0 15.5 0 a7.75 7.75 0 1 0 -15.5 0z" fill="rgba(133, 132, 203, 1)"></path><path d="M108.5 232.5L77.5 232.5L46.5 263.5" stroke-width="5.17" stroke="rgba(133, 132, 203, 1)"></path><path d="M100.75 232.5 a7.75 7.75 0 1 0 15.5 0 a7.75 7.75 0 1 0 -15.5 0zM38.75 263.5 a7.75 7.75 0 1 0 15.5 0 a7.75 7.75 0 1 0 -15.5 0z" fill="rgba(133, 132, 203, 1)"></path><path d="M1255.5 480.5L1193.5 480.5L1162.5 511.5" stroke-width="5.17" stroke="rgba(133, 132, 203, 1)"></path><path d="M1247.75 480.5 a7.75 7.75 0 1 0 15.5 0 a7.75 7.75 0 1 0 -15.5 0zM1154.75 511.5 a7.75 7.75 0 1 0 15.5 0 a7.75 7.75 0 1 0 -15.5 0z" fill="rgba(133, 132, 203, 1)"></path><path d="M542.5 46.5L697.5 201.5L728.5 201.5L790.5 139.5" stroke-width="5.17" stroke="rgba(133, 132, 203, 1)"></path><path d="M534.75 46.5 a7.75 7.75 0 1 0 15.5 0 a7.75 7.75 0 1 0 -15.5 0zM782.75 139.5 a7.75 7.75 0 1 0 15.5 0 a7.75 7.75 0 1 0 -15.5 0z" fill="rgba(133, 132, 203, 1)"></path><path d="M1069.5 480.5L1038.5 480.5L1007.5 449.5" stroke-width="5.17" stroke="rgba(133, 132, 203, 1)"></path><path d="M1061.75 480.5 a7.75 7.75 0 1 0 15.5 0 a7.75 7.75 0 1 0 -15.5 0zM999.75 449.5 a7.75 7.75 0 1 0 15.5 0 a7.75 7.75 0 1 0 -15.5 0z" fill="rgba(133, 132, 203, 1)"></path><path d="M759.5 108.5L697.5 46.5L635.5 46.5L604.5 77.5" stroke-width="5.17" stroke="rgba(133, 132, 203, 1)"></path><path d="M751.75 108.5 a7.75 7.75 0 1 0 15.5 0 a7.75 7.75 0 1 0 -15.5 0zM596.75 77.5 a7.75 7.75 0 1 0 15.5 0 a7.75 7.75 0 1 0 -15.5 0z" fill="rgba(133, 132, 203, 1)"></path><path d="M883.5 139.5L759.5 15.5" stroke-width="5.17" stroke="rgba(133, 132, 203, 1)"></path><path d="M875.75 139.5 a7.75 7.75 0 1 0 15.5 0 a7.75 7.75 0 1 0 -15.5 0zM751.75 15.5 a7.75 7.75 0 1 0 15.5 0 a7.75 7.75 0 1 0 -15.5 0z" fill="rgba(133, 132, 203, 1)"></path><path d="M697.5 263.5L666.5 294.5L635.5 294.5" stroke-width="5.17" stroke="rgba(133, 132, 203, 1)"></path><path d="M689.75 263.5 a7.75 7.75 0 1 0 15.5 0 a7.75 7.75 0 1 0 -15.5 0zM627.75 294.5 a7.75 7.75 0 1 0 15.5 0 a7.75 7.75 0 1 0 -15.5 0z" fill="rgba(133, 132, 203, 1)"></path><path d="M170.5 232.5L139.5 232.5L108.5 201.5" stroke-width="5.17" stroke="rgba(133, 132, 203, 1)"></path><path d="M162.75 232.5 a7.75 7.75 0 1 0 15.5 0 a7.75 7.75 0 1 0 -15.5 0zM100.75 201.5 a7.75 7.75 0 1 0 15.5 0 a7.75 7.75 0 1 0 -15.5 0z" fill="rgba(133, 132, 203, 1)"></path><path d="M511.5 387.5L604.5 387.5" stroke-width="5.17" stroke="rgba(133, 132, 203, 1)"></path><path d="M503.75 387.5 a7.75 7.75 0 1 0 15.5 0 a7.75 7.75 0 1 0 -15.5 0zM596.75 387.5 a7.75 7.75 0 1 0 15.5 0 a7.75 7.75 0 1 0 -15.5 0z" fill="rgba(133, 132, 203, 1)"></path><path d="M759.5 542.5L542.5 542.5" stroke-width="5.17" stroke="rgba(133, 132, 203, 1)"></path><path d="M751.75 542.5 a7.75 7.75 0 1 0 15.5 0 a7.75 7.75 0 1 0 -15.5 0zM534.75 542.5 a7.75 7.75 0 1 0 15.5 0 a7.75 7.75 0 1 0 -15.5 0z" fill="rgba(133, 132, 203, 1)"></path><path d="M201.5 387.5L15.5 387.5" stroke-width="5.17" stroke="rgba(133, 132, 203, 1)"></path><path d="M193.75 387.5 a7.75 7.75 0 1 0 15.5 0 a7.75 7.75 0 1 0 -15.5 0zM7.75 387.5 a7.75 7.75 0 1 0 15.5 0 a7.75 7.75 0 1 0 -15.5 0z" fill="rgba(133, 132, 203, 1)"></path><path d="M15.5 46.5L77.5 46.5L108.5 77.5L108.5 139.5L15.5 232.5" stroke-width="5.17" stroke="rgba(133, 132, 203, 1)"></path><path d="M7.75 46.5 a7.75 7.75 0 1 0 15.5 0 a7.75 7.75 0 1 0 -15.5 0zM7.75 232.5 a7.75 7.75 0 1 0 15.5 0 a7.75 7.75 0 1 0 -15.5 0z" fill="rgba(133, 132, 203, 1)"></path><path d="M914.5 449.5L945.5 418.5L945.5 387.5" stroke-width="5.17" stroke="rgba(133, 132, 203, 1)"></path><path d="M906.75 449.5 a7.75 7.75 0 1 0 15.5 0 a7.75 7.75 0 1 0 -15.5 0zM937.75 387.5 a7.75 7.75 0 1 0 15.5 0 a7.75 7.75 0 1 0 -15.5 0z" fill="rgba(133, 132, 203, 1)"></path><path d="M945.5 108.5L852.5 15.5L790.5 15.5" stroke-width="5.17" stroke="rgba(133, 132, 203, 1)"></path><path d="M937.75 108.5 a7.75 7.75 0 1 0 15.5 0 a7.75 7.75 0 1 0 -15.5 0zM782.75 15.5 a7.75 7.75 0 1 0 15.5 0 a7.75 7.75 0 1 0 -15.5 0z" fill="rgba(133, 132, 203, 1)"></path><path d="M139.5 15.5L201.5 15.5" stroke-width="5.17" stroke="rgba(133, 132, 203, 1)"></path><path d="M131.75 15.5 a7.75 7.75 0 1 0 15.5 0 a7.75 7.75 0 1 0 -15.5 0zM193.75 15.5 a7.75 7.75 0 1 0 15.5 0 a7.75 7.75 0 1 0 -15.5 0z" fill="rgba(133, 132, 203, 1)"></path><path d="M1224.5 511.5L1379.5 511.5" stroke-width="5.17" stroke="rgba(133, 132, 203, 1)"></path><path d="M1216.75 511.5 a7.75 7.75 0 1 0 15.5 0 a7.75 7.75 0 1 0 -15.5 0zM1371.75 511.5 a7.75 7.75 0 1 0 15.5 0 a7.75 7.75 0 1 0 -15.5 0z" fill="rgba(133, 132, 203, 1)"></path><path d="M46.5 418.5L170.5 418.5" stroke-width="5.17" stroke="rgba(133, 132, 203, 1)"></path><path d="M38.75 418.5 a7.75 7.75 0 1 0 15.5 0 a7.75 7.75 0 1 0 -15.5 0zM162.75 418.5 a7.75 7.75 0 1 0 15.5 0 a7.75 7.75 0 1 0 -15.5 0z" fill="rgba(133, 132, 203, 1)"></path><path d="M201.5 356.5L46.5 356.5L15.5 325.5" stroke-width="5.17" stroke="rgba(133, 132, 203, 1)"></path><path d="M193.75 356.5 a7.75 7.75 0 1 0 15.5 0 a7.75 7.75 0 1 0 -15.5 0zM7.75 325.5 a7.75 7.75 0 1 0 15.5 0 a7.75 7.75 0 1 0 -15.5 0z" fill="rgba(133, 132, 203, 1)"></path><path d="M170.5 325.5L46.5 325.5" stroke-width="5.17" stroke="rgba(133, 132, 203, 1)"></path><path d="M162.75 325.5 a7.75 7.75 0 1 0 15.5 0 a7.75 7.75 0 1 0 -15.5 0zM38.75 325.5 a7.75 7.75 0 1 0 15.5 0 a7.75 7.75 0 1 0 -15.5 0z" fill="rgba(133, 132, 203, 1)"></path><path d="M976.5 263.5L1007.5 232.5L1038.5 232.5" stroke-width="5.17" stroke="rgba(133, 132, 203, 1)"></path><path d="M968.75 263.5 a7.75 7.75 0 1 0 15.5 0 a7.75 7.75 0 1 0 -15.5 0zM1030.75 232.5 a7.75 7.75 0 1 0 15.5 0 a7.75 7.75 0 1 0 -15.5 0z" fill="rgba(133, 132, 203, 1)"></path><path d="M1162.5 294.5L1162.5 387.5L1193.5 418.5" stroke-width="5.17" stroke="rgba(133, 132, 203, 1)"></path><path d="M1154.75 294.5 a7.75 7.75 0 1 0 15.5 0 a7.75 7.75 0 1 0 -15.5 0zM1185.75 418.5 a7.75 7.75 0 1 0 15.5 0 a7.75 7.75 0 1 0 -15.5 0z" fill="rgba(133, 132, 203, 1)"></path><path d="M635.5 108.5L697.5 170.5L728.5 170.5L759.5 139.5" stroke-width="5.17" stroke="rgba(133, 132, 203, 1)"></path><path d="M627.75 108.5 a7.75 7.75 0 1 0 15.5 0 a7.75 7.75 0 1 0 -15.5 0zM751.75 139.5 a7.75 7.75 0 1 0 15.5 0 a7.75 7.75 0 1 0 -15.5 0z" fill="rgba(133, 132, 203, 1)"></path><path d="M728.5 294.5L728.5 387.5" stroke-width="5.17" stroke="rgba(133, 132, 203, 1)"></path><path d="M720.75 294.5 a7.75 7.75 0 1 0 15.5 0 a7.75 7.75 0 1 0 -15.5 0zM720.75 387.5 a7.75 7.75 0 1 0 15.5 0 a7.75 7.75 0 1 0 -15.5 0z" fill="rgba(133, 132, 203, 1)"></path><path d="M511.5 418.5L542.5 449.5L604.5 449.5" stroke-width="5.17" stroke="rgba(133, 132, 203, 1)"></path><path d="M503.75 418.5 a7.75 7.75 0 1 0 15.5 0 a7.75 7.75 0 1 0 -15.5 0zM596.75 449.5 a7.75 7.75 0 1 0 15.5 0 a7.75 7.75 0 1 0 -15.5 0z" fill="rgba(133, 132, 203, 1)"></path><path d="M604.5 418.5L542.5 418.5" stroke-width="5.17" stroke="rgba(133, 132, 203, 1)"></path><path d="M596.75 418.5 a7.75 7.75 0 1 0 15.5 0 a7.75 7.75 0 1 0 -15.5 0zM534.75 418.5 a7.75 7.75 0 1 0 15.5 0 a7.75 7.75 0 1 0 -15.5 0z" fill="rgba(133, 132, 203, 1)"></path><path d="M511.5 263.5L418.5 170.5L387.5 170.5" stroke-width="5.17" stroke="rgba(133, 132, 203, 1)"></path><path d="M503.75 263.5 a7.75 7.75 0 1 0 15.5 0 a7.75 7.75 0 1 0 -15.5 0zM379.75 170.5 a7.75 7.75 0 1 0 15.5 0 a7.75 7.75 0 1 0 -15.5 0z" fill="rgba(133, 132, 203, 1)"></path><path d="M883.5 573.5L883.5 511.5L914.5 480.5" stroke-width="5.17" stroke="rgba(133, 132, 203, 1)"></path><path d="M875.75 573.5 a7.75 7.75 0 1 0 15.5 0 a7.75 7.75 0 1 0 -15.5 0zM906.75 480.5 a7.75 7.75 0 1 0 15.5 0 a7.75 7.75 0 1 0 -15.5 0z" fill="rgba(133, 132, 203, 1)"></path><path d="M1162.5 139.5L1100.5 201.5L1100.5 232.5" stroke-width="5.17" stroke="rgba(133, 132, 203, 1)"></path><path d="M1154.75 139.5 a7.75 7.75 0 1 0 15.5 0 a7.75 7.75 0 1 0 -15.5 0zM1092.75 232.5 a7.75 7.75 0 1 0 15.5 0 a7.75 7.75 0 1 0 -15.5 0z" fill="rgba(133, 132, 203, 1)"></path><path d="M1410.5 387.5L1379.5 356.5L1379.5 294.5L1317.5 232.5" stroke-width="5.17" stroke="rgba(133, 132, 203, 1)"></path><path d="M1402.75 387.5 a7.75 7.75 0 1 0 15.5 0 a7.75 7.75 0 1 0 -15.5 0zM1309.75 232.5 a7.75 7.75 0 1 0 15.5 0 a7.75 7.75 0 1 0 -15.5 0z" fill="rgba(133, 132, 203, 1)"></path><path d="M1379.5 77.5L1410.5 46.5L1441.5 46.5" stroke-width="5.17" stroke="rgba(133, 132, 203, 1)"></path><path d="M1371.75 77.5 a7.75 7.75 0 1 0 15.5 0 a7.75 7.75 0 1 0 -15.5 0zM1433.75 46.5 a7.75 7.75 0 1 0 15.5 0 a7.75 7.75 0 1 0 -15.5 0z" fill="rgba(133, 132, 203, 1)"></path><path d="M263.5 480.5L232.5 449.5L232.5 418.5L263.5 387.5L263.5 263.5" stroke-width="5.17" stroke="rgba(133, 132, 203, 1)"></path><path d="M255.75 480.5 a7.75 7.75 0 1 0 15.5 0 a7.75 7.75 0 1 0 -15.5 0zM255.75 263.5 a7.75 7.75 0 1 0 15.5 0 a7.75 7.75 0 1 0 -15.5 0z" fill="rgba(133, 132, 203, 1)"></path><path d="M15.5 108.5L77.5 108.5" stroke-width="5.17" stroke="rgba(133, 132, 203, 1)"></path><path d="M7.75 108.5 a7.75 7.75 0 1 0 15.5 0 a7.75 7.75 0 1 0 -15.5 0zM69.75 108.5 a7.75 7.75 0 1 0 15.5 0 a7.75 7.75 0 1 0 -15.5 0z" fill="rgba(133, 132, 203, 1)"></path><path d="M1441.5 170.5L1379.5 108.5" stroke-width="5.17" stroke="rgba(133, 132, 203, 1)"></path><path d="M1433.75 170.5 a7.75 7.75 0 1 0 15.5 0 a7.75 7.75 0 1 0 -15.5 0zM1371.75 108.5 a7.75 7.75 0 1 0 15.5 0 a7.75 7.75 0 1 0 -15.5 0z" fill="rgba(133, 132, 203, 1)"></path><path d="M108.5 449.5L15.5 449.5" stroke-width="5.17" stroke="rgba(133, 132, 203, 1)"></path><path d="M100.75 449.5 a7.75 7.75 0 1 0 15.5 0 a7.75 7.75 0 1 0 -15.5 0zM7.75 449.5 a7.75 7.75 0 1 0 15.5 0 a7.75 7.75 0 1 0 -15.5 0z" fill="rgba(133, 132, 203, 1)"></path><path d="M1286.5 77.5L1286.5 108.5L1162.5 232.5L1131.5 232.5" stroke-width="5.17" stroke="rgba(133, 132, 203, 1)"></path><path d="M1278.75 77.5 a7.75 7.75 0 1 0 15.5 0 a7.75 7.75 0 1 0 -15.5 0zM1123.75 232.5 a7.75 7.75 0 1 0 15.5 0 a7.75 7.75 0 1 0 -15.5 0z" fill="rgba(133, 132, 203, 1)"></path><path d="M356.5 449.5L418.5 449.5" stroke-width="5.17" stroke="rgba(133, 132, 203, 1)"></path><path d="M348.75 449.5 a7.75 7.75 0 1 0 15.5 0 a7.75 7.75 0 1 0 -15.5 0zM410.75 449.5 a7.75 7.75 0 1 0 15.5 0 a7.75 7.75 0 1 0 -15.5 0z" fill="rgba(133, 132, 203, 1)"></path><path d="M108.5 542.5L15.5 542.5" stroke-width="5.17" stroke="rgba(133, 132, 203, 1)"></path><path d="M100.75 542.5 a7.75 7.75 0 1 0 15.5 0 a7.75 7.75 0 1 0 -15.5 0zM7.75 542.5 a7.75 7.75 0 1 0 15.5 0 a7.75 7.75 0 1 0 -15.5 0z" fill="rgba(133, 132, 203, 1)"></path><path d="M542.5 139.5L542.5 77.5" stroke-width="5.17" stroke="rgba(133, 132, 203, 1)"></path><path d="M534.75 139.5 a7.75 7.75 0 1 0 15.5 0 a7.75 7.75 0 1 0 -15.5 0zM534.75 77.5 a7.75 7.75 0 1 0 15.5 0 a7.75 7.75 0 1 0 -15.5 0z" fill="rgba(133, 132, 203, 1)"></path><path d="M604.5 139.5L666.5 201.5" stroke-width="5.17" stroke="rgba(133, 132, 203, 1)"></path><path d="M596.75 139.5 a7.75 7.75 0 1 0 15.5 0 a7.75 7.75 0 1 0 -15.5 0zM658.75 201.5 a7.75 7.75 0 1 0 15.5 0 a7.75 7.75 0 1 0 -15.5 0z" fill="rgba(133, 132, 203, 1)"></path><path d="M201.5 480.5L232.5 511.5L263.5 511.5" stroke-width="5.17" stroke="rgba(133, 132, 203, 1)"></path><path d="M193.75 480.5 a7.75 7.75 0 1 0 15.5 0 a7.75 7.75 0 1 0 -15.5 0zM255.75 511.5 a7.75 7.75 0 1 0 15.5 0 a7.75 7.75 0 1 0 -15.5 0z" fill="rgba(133, 132, 203, 1)"></path><path d="M1224.5 356.5L1255.5 387.5L1317.5 387.5" stroke-width="5.17" stroke="rgba(133, 132, 203, 1)"></path><path d="M1216.75 356.5 a7.75 7.75 0 1 0 15.5 0 a7.75 7.75 0 1 0 -15.5 0zM1309.75 387.5 a7.75 7.75 0 1 0 15.5 0 a7.75 7.75 0 1 0 -15.5 0z" fill="rgba(133, 132, 203, 1)"></path><path d="M821.5 294.5L883.5 294.5" stroke-width="5.17" stroke="rgba(133, 132, 203, 1)"></path><path d="M813.75 294.5 a7.75 7.75 0 1 0 15.5 0 a7.75 7.75 0 1 0 -15.5 0zM875.75 294.5 a7.75 7.75 0 1 0 15.5 0 a7.75 7.75 0 1 0 -15.5 0z" fill="rgba(133, 132, 203, 1)"></path><path d="M201.5 232.5L170.5 263.5L77.5 263.5" stroke-width="5.17" stroke="rgba(133, 132, 203, 1)"></path><path d="M193.75 232.5 a7.75 7.75 0 1 0 15.5 0 a7.75 7.75 0 1 0 -15.5 0zM69.75 263.5 a7.75 7.75 0 1 0 15.5 0 a7.75 7.75 0 1 0 -15.5 0z" fill="rgba(133, 132, 203, 1)"></path><path d="M1255.5 108.5L1255.5 46.5" stroke-width="5.17" stroke="rgba(133, 132, 203, 1)"></path><path d="M1247.75 108.5 a7.75 7.75 0 1 0 15.5 0 a7.75 7.75 0 1 0 -15.5 0zM1247.75 46.5 a7.75 7.75 0 1 0 15.5 0 a7.75 7.75 0 1 0 -15.5 0z" fill="rgba(133, 132, 203, 1)"></path><path d="M1069.5 77.5L1069.5 15.5" stroke-width="5.17" stroke="rgba(133, 132, 203, 1)"></path><path d="M1061.75 77.5 a7.75 7.75 0 1 0 15.5 0 a7.75 7.75 0 1 0 -15.5 0zM1061.75 15.5 a7.75 7.75 0 1 0 15.5 0 a7.75 7.75 0 1 0 -15.5 0z" fill="rgba(133, 132, 203, 1)"></path><path d="M852.5 77.5L883.5 77.5L945.5 139.5L945.5 170.5" stroke-width="5.17" stroke="rgba(133, 132, 203, 1)"></path><path d="M844.75 77.5 a7.75 7.75 0 1 0 15.5 0 a7.75 7.75 0 1 0 -15.5 0zM937.75 170.5 a7.75 7.75 0 1 0 15.5 0 a7.75 7.75 0 1 0 -15.5 0z" fill="rgba(133, 132, 203, 1)"></path><path d="M945.5 573.5L945.5 511.5" stroke-width="5.17" stroke="rgba(133, 132, 203, 1)"></path><path d="M937.75 573.5 a7.75 7.75 0 1 0 15.5 0 a7.75 7.75 0 1 0 -15.5 0zM937.75 511.5 a7.75 7.75 0 1 0 15.5 0 a7.75 7.75 0 1 0 -15.5 0z" fill="rgba(133, 132, 203, 1)"></path><path d="M852.5 263.5L759.5 263.5" stroke-width="5.17" stroke="rgba(133, 132, 203, 1)"></path><path d="M844.75 263.5 a7.75 7.75 0 1 0 15.5 0 a7.75 7.75 0 1 0 -15.5 0zM751.75 263.5 a7.75 7.75 0 1 0 15.5 0 a7.75 7.75 0 1 0 -15.5 0z" fill="rgba(133, 132, 203, 1)"></path><path d="M573.5 139.5L573.5 201.5" stroke-width="5.17" stroke="rgba(133, 132, 203, 1)"></path><path d="M565.75 139.5 a7.75 7.75 0 1 0 15.5 0 a7.75 7.75 0 1 0 -15.5 0zM565.75 201.5 a7.75 7.75 0 1 0 15.5 0 a7.75 7.75 0 1 0 -15.5 0z" fill="rgba(133, 132, 203, 1)"></path><path d="M232.5 573.5L170.5 573.5" stroke-width="5.17" stroke="rgba(133, 132, 203, 1)"></path><path d="M224.75 573.5 a7.75 7.75 0 1 0 15.5 0 a7.75 7.75 0 1 0 -15.5 0zM162.75 573.5 a7.75 7.75 0 1 0 15.5 0 a7.75 7.75 0 1 0 -15.5 0z" fill="rgba(133, 132, 203, 1)"></path><path d="M1224.5 108.5L1162.5 170.5" stroke-width="5.17" stroke="rgba(133, 132, 203, 1)"></path><path d="M1216.75 108.5 a7.75 7.75 0 1 0 15.5 0 a7.75 7.75 0 1 0 -15.5 0zM1154.75 170.5 a7.75 7.75 0 1 0 15.5 0 a7.75 7.75 0 1 0 -15.5 0z" fill="rgba(133, 132, 203, 1)"></path><path d="M387.5 542.5L356.5 573.5L325.5 573.5" stroke-width="5.17" stroke="rgba(133, 132, 203, 1)"></path><path d="M379.75 542.5 a7.75 7.75 0 1 0 15.5 0 a7.75 7.75 0 1 0 -15.5 0zM317.75 573.5 a7.75 7.75 0 1 0 15.5 0 a7.75 7.75 0 1 0 -15.5 0z" fill="rgba(133, 132, 203, 1)"></path><path d="M666.5 108.5L728.5 108.5" stroke-width="5.17" stroke="rgba(133, 132, 203, 1)"></path><path d="M658.75 108.5 a7.75 7.75 0 1 0 15.5 0 a7.75 7.75 0 1 0 -15.5 0zM720.75 108.5 a7.75 7.75 0 1 0 15.5 0 a7.75 7.75 0 1 0 -15.5 0z" fill="rgba(133, 132, 203, 1)"></path><path d="M1286.5 480.5L1317.5 480.5L1348.5 449.5" stroke-width="5.17" stroke="rgba(133, 132, 203, 1)"></path><path d="M1278.75 480.5 a7.75 7.75 0 1 0 15.5 0 a7.75 7.75 0 1 0 -15.5 0zM1340.75 449.5 a7.75 7.75 0 1 0 15.5 0 a7.75 7.75 0 1 0 -15.5 0z" fill="rgba(133, 132, 203, 1)"></path><path d="M1410.5 294.5L1410.5 356.5" stroke-width="5.17" stroke="rgba(133, 132, 203, 1)"></path><path d="M1402.75 294.5 a7.75 7.75 0 1 0 15.5 0 a7.75 7.75 0 1 0 -15.5 0zM1402.75 356.5 a7.75 7.75 0 1 0 15.5 0 a7.75 7.75 0 1 0 -15.5 0z" fill="rgba(133, 132, 203, 1)"></path></g></g><defs><mask id="SvgjsMask1350"><rect width="1440" height="560" fill="#ffffff"></rect></mask><linearGradient x1="15.28%" y1="-39.29%" x2="84.72%" y2="139.29%" gradientUnits="userSpaceOnUse" id="SvgjsLinearGradient1351"><stop stop-color="#0e2a47" offset="0"></stop><stop stop-color="rgba(86, 81, 140, 1)" offset="1"></stop></linearGradient><mask id="SvgjsMask1352"><rect width="1440" height="560" fill="white"></rect><path d="M135.62 108.5 a3.88 3.88 0 1 0 7.76 0 a3.88 3.88 0 1 0 -7.76 0zM724.62 449.5 a3.88 3.88 0 1 0 7.76 0 a3.88 3.88 0 1 0 -7.76 0z" fill="black"></path><path d="M1003.62 511.5 a3.88 3.88 0 1 0 7.76 0 a3.88 3.88 0 1 0 -7.76 0zM1437.62 573.5 a3.88 3.88 0 1 0 7.76 0 a3.88 3.88 0 1 0 -7.76 0z" fill="black"></path><path d="M1127.62 542.5 a3.88 3.88 0 1 0 7.76 0 a3.88 3.88 0 1 0 -7.76 0zM631.62 15.5 a3.88 3.88 0 1 0 7.76 0 a3.88 3.88 0 1 0 -7.76 0z" fill="black"></path><path d="M321.62 387.5 a3.88 3.88 0 1 0 7.76 0 a3.88 3.88 0 1 0 -7.76 0zM321.62 139.5 a3.88 3.88 0 1 0 7.76 0 a3.88 3.88 0 1 0 -7.76 0z" fill="black"></path><path d="M290.62 263.5 a3.88 3.88 0 1 0 7.76 0 a3.88 3.88 0 1 0 -7.76 0zM290.62 573.5 a3.88 3.88 0 1 0 7.76 0 a3.88 3.88 0 1 0 -7.76 0z" fill="black"></path><path d="M1003.62 139.5 a3.88 3.88 0 1 0 7.76 0 a3.88 3.88 0 1 0 -7.76 0zM1003.62 15.5 a3.88 3.88 0 1 0 7.76 0 a3.88 3.88 0 1 0 -7.76 0z" fill="black"></path><path d="M445.62 542.5 a3.88 3.88 0 1 0 7.76 0 a3.88 3.88 0 1 0 -7.76 0zM972.62 325.5 a3.88 3.88 0 1 0 7.76 0 a3.88 3.88 0 1 0 -7.76 0z" fill="black"></path><path d="M662.62 449.5 a3.88 3.88 0 1 0 7.76 0 a3.88 3.88 0 1 0 -7.76 0zM321.62 480.5 a3.88 3.88 0 1 0 7.76 0 a3.88 3.88 0 1 0 -7.76 0z" fill="black"></path><path d="M383.62 232.5 a3.88 3.88 0 1 0 7.76 0 a3.88 3.88 0 1 0 -7.76 0zM631.62 449.5 a3.88 3.88 0 1 0 7.76 0 a3.88 3.88 0 1 0 -7.76 0z" fill="black"></path><path d="M1034.62 77.5 a3.88 3.88 0 1 0 7.76 0 a3.88 3.88 0 1 0 -7.76 0zM1034.62 15.5 a3.88 3.88 0 1 0 7.76 0 a3.88 3.88 0 1 0 -7.76 0z" fill="black"></path><path d="M1251.62 263.5 a3.88 3.88 0 1 0 7.76 0 a3.88 3.88 0 1 0 -7.76 0zM1437.62 542.5 a3.88 3.88 0 1 0 7.76 0 a3.88 3.88 0 1 0 -7.76 0z" fill="black"></path><path d="M1096.62 170.5 a3.88 3.88 0 1 0 7.76 0 a3.88 3.88 0 1 0 -7.76 0zM1437.62 15.5 a3.88 3.88 0 1 0 7.76 0 a3.88 3.88 0 1 0 -7.76 0z" fill="black"></path><path d="M414.62 573.5 a3.88 3.88 0 1 0 7.76 0 a3.88 3.88 0 1 0 -7.76 0zM414.62 511.5 a3.88 3.88 0 1 0 7.76 0 a3.88 3.88 0 1 0 -7.76 0z" fill="black"></path><path d="M1344.62 170.5 a3.88 3.88 0 1 0 7.76 0 a3.88 3.88 0 1 0 -7.76 0zM1437.62 418.5 a3.88 3.88 0 1 0 7.76 0 a3.88 3.88 0 1 0 -7.76 0z" fill="black"></path><path d="M848.62 511.5 a3.88 3.88 0 1 0 7.76 0 a3.88 3.88 0 1 0 -7.76 0zM445.62 573.5 a3.88 3.88 0 1 0 7.76 0 a3.88 3.88 0 1 0 -7.76 0z" fill="black"></path><path d="M1096.62 15.5 a3.88 3.88 0 1 0 7.76 0 a3.88 3.88 0 1 0 -7.76 0zM941.62 232.5 a3.88 3.88 0 1 0 7.76 0 a3.88 3.88 0 1 0 -7.76 0z" fill="black"></path><path d="M786.62 170.5 a3.88 3.88 0 1 0 7.76 0 a3.88 3.88 0 1 0 -7.76 0zM197.62 46.5 a3.88 3.88 0 1 0 7.76 0 a3.88 3.88 0 1 0 -7.76 0z" fill="black"></path><path d="M1189.62 232.5 a3.88 3.88 0 1 0 7.76 0 a3.88 3.88 0 1 0 -7.76 0zM1313.62 46.5 a3.88 3.88 0 1 0 7.76 0 a3.88 3.88 0 1 0 -7.76 0z" fill="black"></path><path d="M755.62 480.5 a3.88 3.88 0 1 0 7.76 0 a3.88 3.88 0 1 0 -7.76 0zM600.62 263.5 a3.88 3.88 0 1 0 7.76 0 a3.88 3.88 0 1 0 -7.76 0z" fill="black"></path><path d="M11.62 511.5 a3.88 3.88 0 1 0 7.76 0 a3.88 3.88 0 1 0 -7.76 0zM259.62 542.5 a3.88 3.88 0 1 0 7.76 0 a3.88 3.88 0 1 0 -7.76 0z" fill="black"></path><path d="M290.62 232.5 a3.88 3.88 0 1 0 7.76 0 a3.88 3.88 0 1 0 -7.76 0zM290.62 139.5 a3.88 3.88 0 1 0 7.76 0 a3.88 3.88 0 1 0 -7.76 0z" fill="black"></path><path d="M755.62 449.5 a3.88 3.88 0 1 0 7.76 0 a3.88 3.88 0 1 0 -7.76 0zM910.62 294.5 a3.88 3.88 0 1 0 7.76 0 a3.88 3.88 0 1 0 -7.76 0z" fill="black"></path><path d="M786.62 294.5 a3.88 3.88 0 1 0 7.76 0 a3.88 3.88 0 1 0 -7.76 0zM662.62 356.5 a3.88 3.88 0 1 0 7.76 0 a3.88 3.88 0 1 0 -7.76 0z" fill="black"></path><path d="M1065.62 170.5 a3.88 3.88 0 1 0 7.76 0 a3.88 3.88 0 1 0 -7.76 0zM1034.62 325.5 a3.88 3.88 0 1 0 7.76 0 a3.88 3.88 0 1 0 -7.76 0z" fill="black"></path><path d="M135.62 46.5 a3.88 3.88 0 1 0 7.76 0 a3.88 3.88 0 1 0 -7.76 0zM11.62 15.5 a3.88 3.88 0 1 0 7.76 0 a3.88 3.88 0 1 0 -7.76 0z" fill="black"></path><path d="M972.62 232.5 a3.88 3.88 0 1 0 7.76 0 a3.88 3.88 0 1 0 -7.76 0zM1034.62 170.5 a3.88 3.88 0 1 0 7.76 0 a3.88 3.88 0 1 0 -7.76 0z" fill="black"></path><path d="M972.62 418.5 a3.88 3.88 0 1 0 7.76 0 a3.88 3.88 0 1 0 -7.76 0zM972.62 356.5 a3.88 3.88 0 1 0 7.76 0 a3.88 3.88 0 1 0 -7.76 0z" fill="black"></path><path d="M1344.62 77.5 a3.88 3.88 0 1 0 7.76 0 a3.88 3.88 0 1 0 -7.76 0zM1096.62 263.5 a3.88 3.88 0 1 0 7.76 0 a3.88 3.88 0 1 0 -7.76 0z" fill="black"></path><path d="M414.62 387.5 a3.88 3.88 0 1 0 7.76 0 a3.88 3.88 0 1 0 -7.76 0zM445.62 325.5 a3.88 3.88 0 1 0 7.76 0 a3.88 3.88 0 1 0 -7.76 0z" fill="black"></path><path d="M1282.62 449.5 a3.88 3.88 0 1 0 7.76 0 a3.88 3.88 0 1 0 -7.76 0zM1065.62 356.5 a3.88 3.88 0 1 0 7.76 0 a3.88 3.88 0 1 0 -7.76 0z" fill="black"></path><path d="M1344.62 542.5 a3.88 3.88 0 1 0 7.76 0 a3.88 3.88 0 1 0 -7.76 0zM1158.62 542.5 a3.88 3.88 0 1 0 7.76 0 a3.88 3.88 0 1 0 -7.76 0z" fill="black"></path><path d="M135.62 480.5 a3.88 3.88 0 1 0 7.76 0 a3.88 3.88 0 1 0 -7.76 0zM11.62 480.5 a3.88 3.88 0 1 0 7.76 0 a3.88 3.88 0 1 0 -7.76 0z" fill="black"></path><path d="M259.62 232.5 a3.88 3.88 0 1 0 7.76 0 a3.88 3.88 0 1 0 -7.76 0zM259.62 139.5 a3.88 3.88 0 1 0 7.76 0 a3.88 3.88 0 1 0 -7.76 0z" fill="black"></path><path d="M228.62 201.5 a3.88 3.88 0 1 0 7.76 0 a3.88 3.88 0 1 0 -7.76 0zM166.62 480.5 a3.88 3.88 0 1 0 7.76 0 a3.88 3.88 0 1 0 -7.76 0z" fill="black"></path><path d="M414.62 232.5 a3.88 3.88 0 1 0 7.76 0 a3.88 3.88 0 1 0 -7.76 0zM569.62 325.5 a3.88 3.88 0 1 0 7.76 0 a3.88 3.88 0 1 0 -7.76 0z" fill="black"></path><path d="M1065.62 418.5 a3.88 3.88 0 1 0 7.76 0 a3.88 3.88 0 1 0 -7.76 0zM1096.62 542.5 a3.88 3.88 0 1 0 7.76 0 a3.88 3.88 0 1 0 -7.76 0z" fill="black"></path><path d="M1220.62 418.5 a3.88 3.88 0 1 0 7.76 0 a3.88 3.88 0 1 0 -7.76 0zM1406.62 542.5 a3.88 3.88 0 1 0 7.76 0 a3.88 3.88 0 1 0 -7.76 0z" fill="black"></path><path d="M910.62 15.5 a3.88 3.88 0 1 0 7.76 0 a3.88 3.88 0 1 0 -7.76 0zM724.62 15.5 a3.88 3.88 0 1 0 7.76 0 a3.88 3.88 0 1 0 -7.76 0z" fill="black"></path><path d="M352.62 263.5 a3.88 3.88 0 1 0 7.76 0 a3.88 3.88 0 1 0 -7.76 0zM383.62 139.5 a3.88 3.88 0 1 0 7.76 0 a3.88 3.88 0 1 0 -7.76 0z" fill="black"></path><path d="M507.62 139.5 a3.88 3.88 0 1 0 7.76 0 a3.88 3.88 0 1 0 -7.76 0zM507.62 15.5 a3.88 3.88 0 1 0 7.76 0 a3.88 3.88 0 1 0 -7.76 0z" fill="black"></path><path d="M197.62 294.5 a3.88 3.88 0 1 0 7.76 0 a3.88 3.88 0 1 0 -7.76 0zM11.62 294.5 a3.88 3.88 0 1 0 7.76 0 a3.88 3.88 0 1 0 -7.76 0z" fill="black"></path><path d="M414.62 325.5 a3.88 3.88 0 1 0 7.76 0 a3.88 3.88 0 1 0 -7.76 0zM383.62 263.5 a3.88 3.88 0 1 0 7.76 0 a3.88 3.88 0 1 0 -7.76 0z" fill="black"></path><path d="M972.62 511.5 a3.88 3.88 0 1 0 7.76 0 a3.88 3.88 0 1 0 -7.76 0zM1034.62 387.5 a3.88 3.88 0 1 0 7.76 0 a3.88 3.88 0 1 0 -7.76 0z" fill="black"></path><path d="M1189.62 325.5 a3.88 3.88 0 1 0 7.76 0 a3.88 3.88 0 1 0 -7.76 0zM1344.62 387.5 a3.88 3.88 0 1 0 7.76 0 a3.88 3.88 0 1 0 -7.76 0z" fill="black"></path><path d="M104.62 46.5 a3.88 3.88 0 1 0 7.76 0 a3.88 3.88 0 1 0 -7.76 0zM352.62 77.5 a3.88 3.88 0 1 0 7.76 0 a3.88 3.88 0 1 0 -7.76 0z" fill="black"></path><path d="M1313.62 294.5 a3.88 3.88 0 1 0 7.76 0 a3.88 3.88 0 1 0 -7.76 0zM1313.62 201.5 a3.88 3.88 0 1 0 7.76 0 a3.88 3.88 0 1 0 -7.76 0z" fill="black"></path><path d="M104.62 573.5 a3.88 3.88 0 1 0 7.76 0 a3.88 3.88 0 1 0 -7.76 0zM11.62 573.5 a3.88 3.88 0 1 0 7.76 0 a3.88 3.88 0 1 0 -7.76 0z" fill="black"></path><path d="M11.62 263.5 a3.88 3.88 0 1 0 7.76 0 a3.88 3.88 0 1 0 -7.76 0zM228.62 139.5 a3.88 3.88 0 1 0 7.76 0 a3.88 3.88 0 1 0 -7.76 0z" fill="black"></path><path d="M104.62 232.5 a3.88 3.88 0 1 0 7.76 0 a3.88 3.88 0 1 0 -7.76 0zM42.62 263.5 a3.88 3.88 0 1 0 7.76 0 a3.88 3.88 0 1 0 -7.76 0z" fill="black"></path><path d="M1251.62 480.5 a3.88 3.88 0 1 0 7.76 0 a3.88 3.88 0 1 0 -7.76 0zM1158.62 511.5 a3.88 3.88 0 1 0 7.76 0 a3.88 3.88 0 1 0 -7.76 0z" fill="black"></path><path d="M538.62 46.5 a3.88 3.88 0 1 0 7.76 0 a3.88 3.88 0 1 0 -7.76 0zM786.62 139.5 a3.88 3.88 0 1 0 7.76 0 a3.88 3.88 0 1 0 -7.76 0z" fill="black"></path><path d="M1065.62 480.5 a3.88 3.88 0 1 0 7.76 0 a3.88 3.88 0 1 0 -7.76 0zM1003.62 449.5 a3.88 3.88 0 1 0 7.76 0 a3.88 3.88 0 1 0 -7.76 0z" fill="black"></path><path d="M755.62 108.5 a3.88 3.88 0 1 0 7.76 0 a3.88 3.88 0 1 0 -7.76 0zM600.62 77.5 a3.88 3.88 0 1 0 7.76 0 a3.88 3.88 0 1 0 -7.76 0z" fill="black"></path><path d="M879.62 139.5 a3.88 3.88 0 1 0 7.76 0 a3.88 3.88 0 1 0 -7.76 0zM755.62 15.5 a3.88 3.88 0 1 0 7.76 0 a3.88 3.88 0 1 0 -7.76 0z" fill="black"></path><path d="M693.62 263.5 a3.88 3.88 0 1 0 7.76 0 a3.88 3.88 0 1 0 -7.76 0zM631.62 294.5 a3.88 3.88 0 1 0 7.76 0 a3.88 3.88 0 1 0 -7.76 0z" fill="black"></path><path d="M166.62 232.5 a3.88 3.88 0 1 0 7.76 0 a3.88 3.88 0 1 0 -7.76 0zM104.62 201.5 a3.88 3.88 0 1 0 7.76 0 a3.88 3.88 0 1 0 -7.76 0z" fill="black"></path><path d="M507.62 387.5 a3.88 3.88 0 1 0 7.76 0 a3.88 3.88 0 1 0 -7.76 0zM600.62 387.5 a3.88 3.88 0 1 0 7.76 0 a3.88 3.88 0 1 0 -7.76 0z" fill="black"></path><path d="M755.62 542.5 a3.88 3.88 0 1 0 7.76 0 a3.88 3.88 0 1 0 -7.76 0zM538.62 542.5 a3.88 3.88 0 1 0 7.76 0 a3.88 3.88 0 1 0 -7.76 0z" fill="black"></path><path d="M197.62 387.5 a3.88 3.88 0 1 0 7.76 0 a3.88 3.88 0 1 0 -7.76 0zM11.62 387.5 a3.88 3.88 0 1 0 7.76 0 a3.88 3.88 0 1 0 -7.76 0z" fill="black"></path><path d="M11.62 46.5 a3.88 3.88 0 1 0 7.76 0 a3.88 3.88 0 1 0 -7.76 0zM11.62 232.5 a3.88 3.88 0 1 0 7.76 0 a3.88 3.88 0 1 0 -7.76 0z" fill="black"></path><path d="M910.62 449.5 a3.88 3.88 0 1 0 7.76 0 a3.88 3.88 0 1 0 -7.76 0zM941.62 387.5 a3.88 3.88 0 1 0 7.76 0 a3.88 3.88 0 1 0 -7.76 0z" fill="black"></path><path d="M941.62 108.5 a3.88 3.88 0 1 0 7.76 0 a3.88 3.88 0 1 0 -7.76 0zM786.62 15.5 a3.88 3.88 0 1 0 7.76 0 a3.88 3.88 0 1 0 -7.76 0z" fill="black"></path><path d="M135.62 15.5 a3.88 3.88 0 1 0 7.76 0 a3.88 3.88 0 1 0 -7.76 0zM197.62 15.5 a3.88 3.88 0 1 0 7.76 0 a3.88 3.88 0 1 0 -7.76 0z" fill="black"></path><path d="M1220.62 511.5 a3.88 3.88 0 1 0 7.76 0 a3.88 3.88 0 1 0 -7.76 0zM1375.62 511.5 a3.88 3.88 0 1 0 7.76 0 a3.88 3.88 0 1 0 -7.76 0z" fill="black"></path><path d="M42.62 418.5 a3.88 3.88 0 1 0 7.76 0 a3.88 3.88 0 1 0 -7.76 0zM166.62 418.5 a3.88 3.88 0 1 0 7.76 0 a3.88 3.88 0 1 0 -7.76 0z" fill="black"></path><path d="M197.62 356.5 a3.88 3.88 0 1 0 7.76 0 a3.88 3.88 0 1 0 -7.76 0zM11.62 325.5 a3.88 3.88 0 1 0 7.76 0 a3.88 3.88 0 1 0 -7.76 0z" fill="black"></path><path d="M166.62 325.5 a3.88 3.88 0 1 0 7.76 0 a3.88 3.88 0 1 0 -7.76 0zM42.62 325.5 a3.88 3.88 0 1 0 7.76 0 a3.88 3.88 0 1 0 -7.76 0z" fill="black"></path><path d="M972.62 263.5 a3.88 3.88 0 1 0 7.76 0 a3.88 3.88 0 1 0 -7.76 0zM1034.62 232.5 a3.88 3.88 0 1 0 7.76 0 a3.88 3.88 0 1 0 -7.76 0z" fill="black"></path><path d="M1158.62 294.5 a3.88 3.88 0 1 0 7.76 0 a3.88 3.88 0 1 0 -7.76 0zM1189.62 418.5 a3.88 3.88 0 1 0 7.76 0 a3.88 3.88 0 1 0 -7.76 0z" fill="black"></path><path d="M631.62 108.5 a3.88 3.88 0 1 0 7.76 0 a3.88 3.88 0 1 0 -7.76 0zM755.62 139.5 a3.88 3.88 0 1 0 7.76 0 a3.88 3.88 0 1 0 -7.76 0z" fill="black"></path><path d="M724.62 294.5 a3.88 3.88 0 1 0 7.76 0 a3.88 3.88 0 1 0 -7.76 0zM724.62 387.5 a3.88 3.88 0 1 0 7.76 0 a3.88 3.88 0 1 0 -7.76 0z" fill="black"></path><path d="M507.62 418.5 a3.88 3.88 0 1 0 7.76 0 a3.88 3.88 0 1 0 -7.76 0zM600.62 449.5 a3.88 3.88 0 1 0 7.76 0 a3.88 3.88 0 1 0 -7.76 0z" fill="black"></path><path d="M600.62 418.5 a3.88 3.88 0 1 0 7.76 0 a3.88 3.88 0 1 0 -7.76 0zM538.62 418.5 a3.88 3.88 0 1 0 7.76 0 a3.88 3.88 0 1 0 -7.76 0z" fill="black"></path><path d="M507.62 263.5 a3.88 3.88 0 1 0 7.76 0 a3.88 3.88 0 1 0 -7.76 0zM383.62 170.5 a3.88 3.88 0 1 0 7.76 0 a3.88 3.88 0 1 0 -7.76 0z" fill="black"></path><path d="M879.62 573.5 a3.88 3.88 0 1 0 7.76 0 a3.88 3.88 0 1 0 -7.76 0zM910.62 480.5 a3.88 3.88 0 1 0 7.76 0 a3.88 3.88 0 1 0 -7.76 0z" fill="black"></path><path d="M1158.62 139.5 a3.88 3.88 0 1 0 7.76 0 a3.88 3.88 0 1 0 -7.76 0zM1096.62 232.5 a3.88 3.88 0 1 0 7.76 0 a3.88 3.88 0 1 0 -7.76 0z" fill="black"></path><path d="M1406.62 387.5 a3.88 3.88 0 1 0 7.76 0 a3.88 3.88 0 1 0 -7.76 0zM1313.62 232.5 a3.88 3.88 0 1 0 7.76 0 a3.88 3.88 0 1 0 -7.76 0z" fill="black"></path><path d="M1375.62 77.5 a3.88 3.88 0 1 0 7.76 0 a3.88 3.88 0 1 0 -7.76 0zM1437.62 46.5 a3.88 3.88 0 1 0 7.76 0 a3.88 3.88 0 1 0 -7.76 0z" fill="black"></path><path d="M259.62 480.5 a3.88 3.88 0 1 0 7.76 0 a3.88 3.88 0 1 0 -7.76 0zM259.62 263.5 a3.88 3.88 0 1 0 7.76 0 a3.88 3.88 0 1 0 -7.76 0z" fill="black"></path><path d="M11.62 108.5 a3.88 3.88 0 1 0 7.76 0 a3.88 3.88 0 1 0 -7.76 0zM73.62 108.5 a3.88 3.88 0 1 0 7.76 0 a3.88 3.88 0 1 0 -7.76 0z" fill="black"></path><path d="M1437.62 170.5 a3.88 3.88 0 1 0 7.76 0 a3.88 3.88 0 1 0 -7.76 0zM1375.62 108.5 a3.88 3.88 0 1 0 7.76 0 a3.88 3.88 0 1 0 -7.76 0z" fill="black"></path><path d="M104.62 449.5 a3.88 3.88 0 1 0 7.76 0 a3.88 3.88 0 1 0 -7.76 0zM11.62 449.5 a3.88 3.88 0 1 0 7.76 0 a3.88 3.88 0 1 0 -7.76 0z" fill="black"></path><path d="M1282.62 77.5 a3.88 3.88 0 1 0 7.76 0 a3.88 3.88 0 1 0 -7.76 0zM1127.62 232.5 a3.88 3.88 0 1 0 7.76 0 a3.88 3.88 0 1 0 -7.76 0z" fill="black"></path><path d="M352.62 449.5 a3.88 3.88 0 1 0 7.76 0 a3.88 3.88 0 1 0 -7.76 0zM414.62 449.5 a3.88 3.88 0 1 0 7.76 0 a3.88 3.88 0 1 0 -7.76 0z" fill="black"></path><path d="M104.62 542.5 a3.88 3.88 0 1 0 7.76 0 a3.88 3.88 0 1 0 -7.76 0zM11.62 542.5 a3.88 3.88 0 1 0 7.76 0 a3.88 3.88 0 1 0 -7.76 0z" fill="black"></path><path d="M538.62 139.5 a3.88 3.88 0 1 0 7.76 0 a3.88 3.88 0 1 0 -7.76 0zM538.62 77.5 a3.88 3.88 0 1 0 7.76 0 a3.88 3.88 0 1 0 -7.76 0z" fill="black"></path><path d="M600.62 139.5 a3.88 3.88 0 1 0 7.76 0 a3.88 3.88 0 1 0 -7.76 0zM662.62 201.5 a3.88 3.88 0 1 0 7.76 0 a3.88 3.88 0 1 0 -7.76 0z" fill="black"></path><path d="M197.62 480.5 a3.88 3.88 0 1 0 7.76 0 a3.88 3.88 0 1 0 -7.76 0zM259.62 511.5 a3.88 3.88 0 1 0 7.76 0 a3.88 3.88 0 1 0 -7.76 0z" fill="black"></path><path d="M1220.62 356.5 a3.88 3.88 0 1 0 7.76 0 a3.88 3.88 0 1 0 -7.76 0zM1313.62 387.5 a3.88 3.88 0 1 0 7.76 0 a3.88 3.88 0 1 0 -7.76 0z" fill="black"></path><path d="M817.62 294.5 a3.88 3.88 0 1 0 7.76 0 a3.88 3.88 0 1 0 -7.76 0zM879.62 294.5 a3.88 3.88 0 1 0 7.76 0 a3.88 3.88 0 1 0 -7.76 0z" fill="black"></path><path d="M197.62 232.5 a3.88 3.88 0 1 0 7.76 0 a3.88 3.88 0 1 0 -7.76 0zM73.62 263.5 a3.88 3.88 0 1 0 7.76 0 a3.88 3.88 0 1 0 -7.76 0z" fill="black"></path><path d="M1251.62 108.5 a3.88 3.88 0 1 0 7.76 0 a3.88 3.88 0 1 0 -7.76 0zM1251.62 46.5 a3.88 3.88 0 1 0 7.76 0 a3.88 3.88 0 1 0 -7.76 0z" fill="black"></path><path d="M1065.62 77.5 a3.88 3.88 0 1 0 7.76 0 a3.88 3.88 0 1 0 -7.76 0zM1065.62 15.5 a3.88 3.88 0 1 0 7.76 0 a3.88 3.88 0 1 0 -7.76 0z" fill="black"></path><path d="M848.62 77.5 a3.88 3.88 0 1 0 7.76 0 a3.88 3.88 0 1 0 -7.76 0zM941.62 170.5 a3.88 3.88 0 1 0 7.76 0 a3.88 3.88 0 1 0 -7.76 0z" fill="black"></path><path d="M941.62 573.5 a3.88 3.88 0 1 0 7.76 0 a3.88 3.88 0 1 0 -7.76 0zM941.62 511.5 a3.88 3.88 0 1 0 7.76 0 a3.88 3.88 0 1 0 -7.76 0z" fill="black"></path><path d="M848.62 263.5 a3.88 3.88 0 1 0 7.76 0 a3.88 3.88 0 1 0 -7.76 0zM755.62 263.5 a3.88 3.88 0 1 0 7.76 0 a3.88 3.88 0 1 0 -7.76 0z" fill="black"></path><path d="M569.62 139.5 a3.88 3.88 0 1 0 7.76 0 a3.88 3.88 0 1 0 -7.76 0zM569.62 201.5 a3.88 3.88 0 1 0 7.76 0 a3.88 3.88 0 1 0 -7.76 0z" fill="black"></path><path d="M228.62 573.5 a3.88 3.88 0 1 0 7.76 0 a3.88 3.88 0 1 0 -7.76 0zM166.62 573.5 a3.88 3.88 0 1 0 7.76 0 a3.88 3.88 0 1 0 -7.76 0z" fill="black"></path><path d="M1220.62 108.5 a3.88 3.88 0 1 0 7.76 0 a3.88 3.88 0 1 0 -7.76 0zM1158.62 170.5 a3.88 3.88 0 1 0 7.76 0 a3.88 3.88 0 1 0 -7.76 0z" fill="black"></path><path d="M383.62 542.5 a3.88 3.88 0 1 0 7.76 0 a3.88 3.88 0 1 0 -7.76 0zM321.62 573.5 a3.88 3.88 0 1 0 7.76 0 a3.88 3.88 0 1 0 -7.76 0z" fill="black"></path><path d="M662.62 108.5 a3.88 3.88 0 1 0 7.76 0 a3.88 3.88 0 1 0 -7.76 0zM724.62 108.5 a3.88 3.88 0 1 0 7.76 0 a3.88 3.88 0 1 0 -7.76 0z" fill="black"></path><path d="M1282.62 480.5 a3.88 3.88 0 1 0 7.76 0 a3.88 3.88 0 1 0 -7.76 0zM1344.62 449.5 a3.88 3.88 0 1 0 7.76 0 a3.88 3.88 0 1 0 -7.76 0z" fill="black"></path><path d="M1406.62 294.5 a3.88 3.88 0 1 0 7.76 0 a3.88 3.88 0 1 0 -7.76 0zM1406.62 356.5 a3.88 3.88 0 1 0 7.76 0 a3.88 3.88 0 1 0 -7.76 0z" fill="black"></path></mask></defs></svg>