<svg xmlns="http://www.w3.org/2000/svg" version="1.1" xmlns:xlink="http://www.w3.org/1999/xlink" xmlns:svgjs="http://svgjs.dev/svgjs" width="1440" height="560" preserveAspectRatio="none" viewBox="0 0 1440 560"><g clip-path="url(&quot;#SvgjsClipPath1601&quot;)" fill="none"><rect width="1440" height="560" x="0" y="0" fill="url(&quot;#SvgjsLinearGradient1602&quot;)"></rect><circle r="93.335" cx="-79.55" cy="-29" stroke="#8584cb" stroke-opacity="1" stroke-width="2"></circle><circle r="93.335" cx="393.56" cy="318.13" stroke="#8584cb" stroke-opacity="1" stroke-width="2"></circle><circle r="93.335" cx="782.49" cy="688.7" stroke="#8584cb" stroke-opacity="1" stroke-width="2"></circle><circle r="80.065" cx="576.22" cy="233.79" stroke="#8584cb" stroke-opacity="1" stroke-width="2"></circle><circle r="120.64" cx="850.05" cy="110.02" stroke="#8584cb" stroke-opacity="1" stroke-width="2"></circle><circle r="167.46" cx="617.9" cy="547.46" stroke="#8584cb" stroke-opacity="1" stroke-width="2"></circle><circle r="107.035" cx="744.65" cy="511.48" stroke="#8584cb" stroke-opacity="1" stroke-width="2"></circle><circle r="101.845" cx="456.87" cy="503.81" stroke="#8584cb" stroke-opacity="1" stroke-width="2"></circle><circle r="126.475" cx="899.58" cy="144" stroke="#8584cb" stroke-opacity="1" stroke-width="2"></circle><circle r="162.53" cx="824.56" cy="285.68" stroke="#8584cb" stroke-opacity="1" stroke-width="2"></circle><circle r="101.87" cx="1395.37" cy="419.72" stroke="#8584cb" stroke-opacity="1" stroke-width="2"></circle><circle r="76.465" cx="521.38" cy="116.17" stroke="#8584cb" stroke-opacity="1" stroke-width="2"></circle><circle r="142.03" cx="728.72" cy="153.66" stroke="#8584cb" stroke-opacity="1" stroke-width="2"></circle><circle r="150.6" cx="1146.9" cy="210.72" stroke="#8584cb" stroke-opacity="1" stroke-width="2"></circle><circle r="165.905" cx="1391.69" cy="23.64" stroke="#8584cb" stroke-opacity="1" stroke-width="2"></circle><circle r="63.99" cx="1072.32" cy="127.99" stroke="#8584cb" stroke-opacity="1" stroke-width="2"></circle><circle r="158.71" cx="100.71" cy="201.74" stroke="#8584cb" stroke-opacity="1" stroke-width="2"></circle><circle r="146.445" cx="582.96" cy="557.37" stroke="#8584cb" stroke-opacity="1" stroke-width="2"></circle><circle r="74.5" cx="821.74" cy="126.79" stroke="#8584cb" stroke-opacity="1" stroke-width="2"></circle><circle r="135.75" cx="1069.13" cy="357.42" stroke="#8584cb" stroke-opacity="1" stroke-width="2"></circle><circle r="164.64" cx="509.26" cy="445.95" stroke="#8584cb" stroke-opacity="1" stroke-width="2"></circle><circle r="99.14" cx="1264.46" cy="25.79" stroke="#8584cb" stroke-opacity="1" stroke-width="2"></circle><circle r="57.455" cx="665.97" cy="57.66" stroke="#8584cb" stroke-opacity="1" stroke-width="2"></circle><circle r="94.815" cx="897.63" cy="405.23" stroke="#8584cb" stroke-opacity="1" stroke-width="2"></circle><circle r="138.965" cx="682.71" cy="190.69" stroke="#8584cb" stroke-opacity="1" stroke-width="2"></circle><circle r="81.845" cx="137.34" cy="518.43" stroke="#8584cb" stroke-opacity="1" stroke-width="2"></circle><circle r="51.08" cx="259.04" cy="522.36" stroke="#8584cb" stroke-opacity="1" stroke-width="2"></circle><circle r="129.25" cx="864.61" cy="250.39" stroke="#8584cb" stroke-opacity="1" stroke-width="2"></circle><circle r="170.61" cx="1121.45" cy="324.4" stroke="#8584cb" stroke-opacity="1" stroke-width="2"></circle><circle r="165.065" cx="261.49" cy="304.3" stroke="#8584cb" stroke-opacity="1" stroke-width="2"></circle></g><defs><clipPath id="SvgjsClipPath1601"><rect width="1440" height="560" x="0" y="0"></rect></clipPath><linearGradient x1="15.28%" y1="-39.29%" x2="84.72%" y2="139.29%" gradientUnits="userSpaceOnUse" id="SvgjsLinearGradient1602"><stop stop-color="#0e2a47" offset="0"></stop><stop stop-color="rgba(91, 86, 141, 1)" offset="1"></stop></linearGradient></defs></svg>