<svg xmlns="http://www.w3.org/2000/svg" version="1.1" xmlns:xlink="http://www.w3.org/1999/xlink" xmlns:svgjs="http://svgjs.dev/svgjs" width="1440" height="560" preserveAspectRatio="none" viewBox="0 0 1440 560"><g mask="url(&quot;#SvgjsMask1105&quot;)" fill="none"><rect width="1440" height="560" x="0" y="0" fill="url(&quot;#SvgjsLinearGradient1106&quot;)"></rect><path d="M140 100.93C69.61 78.21 51.51 90.24 0 53.1C-18.49 39.77 -19.25 7.3 0 0C50.75 -19.25 70 0 140 0C210 0 210 0 280 0C350 0 350 0 420 0C490 0 490 0 560 0C630 0 630 0 700 0C770 0 770 0 840 0C910 0 910 0 980 0C1050 0 1050 0 1120 0C1190 0 1190 0 1260 0C1308.7 0 1313.8 -12.71 1357.39 0C1383.8 7.7 1379.87 19.28 1400 40.83C1445.25 89.28 1441.73 92.84 1488.15 140C1511.73 163.96 1529.37 154.36 1540 183.08C1555.29 224.36 1540 231.54 1540 280C1540 341.76 1544.76 343.21 1540 403.53C1539.24 413.21 1528.95 411.86 1528.95 420C1528.95 427.73 1539.27 426.08 1540 435.27C1544.8 496.08 1572.98 530.62 1540 560C1502.98 592.98 1470 560 1400 560C1330 560 1330 560 1260 560C1190 560 1190 560 1120 560C1082.5 560 1080.12 569.13 1045 560C1010.12 550.93 1009.62 523.6 980 523.6C960.27 523.6 968.57 554.21 946.3 560C898.57 572.41 893.15 560 840 560C770 560 770 560 700 560C630 560 630 560 560 560C535 560 534.68 563.22 510 560C464.68 554.09 465 541.74 420 541.74C375 541.74 375.32 554.09 330 560C305.32 563.22 305 560 280 560C210 560 210 560 140 560C90.13 560 58.16 589.05 40.25 560C15 519.05 51 490.15 53.67 420C56.33 350.15 26.78 337.39 50.91 280C69.95 234.72 93.57 244.44 140 214.67C202.73 174.44 269.23 169.86 269.23 140C269.23 112.99 204.23 121.66 140 100.93" stroke="rgba(133, 132, 203, 1)" stroke-width="2"></path><path d="M700 102.03C646.23 102.03 593.33 114.22 593.33 140C593.33 169.34 645.41 212.26 700 212.26C760.97 212.26 824.44 168.94 824.44 140C824.44 113.83 761.78 102.03 700 102.03" stroke="rgba(133, 132, 203, 1)" stroke-width="2"></path><path d="M140 60.23C86.84 58.95 38.43 16.19 38.43 0C38.43 -13.93 89.22 0 140 0C210 0 210 0 280 0C350 0 350 0 420 0C490 0 490 0 560 0C630 0 630 0 700 0C770 0 770 0 840 0C910 0 910 0 980 0C1050 0 1050 0 1120 0C1190 0 1190 0 1260 0C1270.65 0 1273.27 -6.52 1281.3 0C1343.27 50.35 1341.48 56.07 1400 113.75C1412.5 126.07 1410.17 128.42 1423.33 140C1480.17 190.01 1494.57 182.4 1540 236.92C1552.9 252.4 1540 258.46 1540 280C1540 307.45 1549.96 310.48 1540 334.9C1521.41 380.48 1482.89 377.96 1482.89 420C1482.89 459.96 1522.45 455.89 1540 498.91C1551.01 525.89 1561.27 550.72 1540 560C1491.27 581.27 1470 560 1400 560C1330 560 1330 560 1260 560C1214.14 560 1197.73 584.55 1168.28 560C1127.73 526.21 1164.58 468.52 1120 443.33C1070.44 415.32 1038.66 424.91 980 453.6C919.4 483.24 935.91 518.63 881.48 560C865.91 571.83 860.74 560 840 560C770 560 770 560 700 560C652.22 560 639.81 580.8 604.44 560C569.81 539.63 596.85 491.43 560 477.65C504.63 456.94 489.57 481.25 420 491.01C349.57 500.89 345.3 493.68 280 516.92C248.37 528.18 257.27 550.42 226.15 560C187.27 571.96 183.07 560 140 560C112 560 87.94 579.72 84 560C73.94 509.72 96.1 489.56 112 420C124.1 367.06 120.89 365.06 140 315C147.61 295.06 147.97 292.05 165.45 280C217.97 243.82 227.94 256.29 280 218.54C324.48 186.29 358.54 184.32 358.54 140C358.54 77.97 335.58 26.12 280 5.83C226.31 -13.77 207.62 61.86 140 60.23" stroke="rgba(133, 132, 203, 1)" stroke-width="2"></path><path d="M560 23.33C507.22 47.36 486.32 81.31 486.32 140C486.32 200.52 517.97 206.22 560 261.74C570.96 276.22 574.84 274.08 592.31 280C644.84 297.8 647.36 309.17 700 309.17C733.03 309.17 733.05 296.86 763.64 280C803.05 258.28 810.59 264.3 840 232C874.32 194.3 891.11 181.64 891.11 140C891.11 112.97 870 109.92 840 94.65C774.44 61.28 771.92 61.03 700 42.71C631.92 25.37 614.06 -1.28 560 23.33" stroke="rgba(133, 132, 203, 1)" stroke-width="2"></path><path d="M140 19.53C122.85 19.53 107.06 5.25 107.06 0C107.06 -4.52 123.53 0 140 0C163.33 0 186.67 -4.69 186.67 0C186.67 5.08 162.66 19.53 140 19.53" stroke="rgba(133, 132, 203, 1)" stroke-width="2"></path><path d="M420 106.21C385.7 106.21 353.04 34.63 353.04 0C353.04 -18.47 386.52 0 420 0C455.82 0 491.63 -19.04 491.63 0C491.63 34.06 455 106.21 420 106.21" stroke="rgba(133, 132, 203, 1)" stroke-width="2"></path><path d="M840 45.35C791.89 13.87 732.67 11.8 732.67 0C732.67 -10.87 786.34 0 840 0C910 0 910 0 980 0C1022.78 0 1038.29 -23.86 1065.56 0C1108.29 37.39 1092.93 61.19 1120 122.5C1123.83 131.19 1122.54 131.84 1127.37 140C1169.2 210.59 1215.64 227.03 1213.33 280C1211.96 311.51 1166.52 294.02 1120 308.97C1049.85 331.52 1042.51 363.42 980 355C935.01 348.94 912.01 325.22 905 280C895.35 217.72 963.11 199.37 946.67 140C930.61 82.04 898.89 83.87 840 45.35" stroke="rgba(133, 132, 203, 1)" stroke-width="2"></path><path d="M316.3 280C368.15 228.15 373.72 176.3 420 176.3C458.9 176.3 471.06 222.94 486.67 280C504.4 344.79 508.93 366.49 486.67 420C475.59 446.64 454.04 433.19 420 440.29C350.71 454.73 347.28 469.15 280 463.08C234.86 459.01 195.15 450.48 195.15 420C195.15 377.09 236.2 366.91 280 316.3C296.78 296.91 298.15 298.15 316.3 280" stroke="rgba(133, 132, 203, 1)" stroke-width="2"></path><path d="M624.17 420C631.57 387.11 659.31 388.29 700 382.08C767.23 371.82 775.11 372.83 840 387.06C861.58 391.79 872.94 402.44 872.94 420C872.94 440.45 853.34 439.62 840 463.08C813.54 509.62 830.81 534.05 793.33 560C760.81 582.51 746.66 560 700 560C680 560 668.22 575.18 660 560C630.3 505.18 611.57 476.07 624.17 420" stroke="rgba(133, 132, 203, 1)" stroke-width="2"></path><path d="M1288 420C1288 376.24 1353.68 348.21 1400 348.21C1428.1 348.21 1436.84 382.33 1436.84 420C1436.84 481.86 1432.65 547.27 1400 547.27C1358.23 547.27 1288 475.77 1288 420" stroke="rgba(133, 132, 203, 1)" stroke-width="2"></path><path d="M127.75 560C127.75 540.28 132.38 511 140 511C147.93 511 158.85 541.97 158.85 560C158.85 566.47 149.43 560 140 560C133.88 560 127.75 564.78 127.75 560" stroke="rgba(133, 132, 203, 1)" stroke-width="2"></path></g><defs><mask id="SvgjsMask1105"><rect width="1440" height="560" fill="#ffffff"></rect></mask><linearGradient x1="15.28%" y1="-39.29%" x2="84.72%" y2="139.29%" gradientUnits="userSpaceOnUse" id="SvgjsLinearGradient1106"><stop stop-color="#0e2a47" offset="0"></stop><stop stop-color="rgba(79, 74, 124, 1)" offset="1"></stop></linearGradient></defs></svg>