<svg xmlns="http://www.w3.org/2000/svg" version="1.1" xmlns:xlink="http://www.w3.org/1999/xlink" xmlns:svgjs="http://svgjs.dev/svgjs" width="1440" height="560" preserveAspectRatio="none" viewBox="0 0 1440 560"><g mask="url(&quot;#SvgjsMask1050&quot;)" fill="none"><rect width="1440" height="560" x="0" y="0" fill="url(&quot;#SvgjsLinearGradient1051&quot;)"></rect><path d="M0 12.35C0.37 5.26 0.52 0.6 7.37 0C70.52 -5.57 73.69 0 140 0C210 0 210 0 280 0C350 0 350 0 420 0C490 0 490 0 560 0C630 0 630 0 700 0C770 0 770 0 840 0C910 0 910 0 980 0C1034.93 0 1056.81 -28.1 1089.87 0C1126.81 31.4 1103.92 119 1120 119C1136.23 119 1116.68 32.13 1154.49 0C1186.68 -27.37 1207.24 0 1260 0C1330 0 1330 0 1400 0C1468.11 0 1511.26 -34.03 1536.22 0C1562.6 35.97 1501.41 72.85 1502.67 140C1503.3 173.39 1531.12 167.79 1540 201.09C1549.79 237.79 1540 240.55 1540 280C1540 350 1540 350 1540 420C1540 490 1575 525 1540 560C1505 595 1470 560 1400 560C1330 560 1330 560 1260 560C1260 560 1260 560 1260 560C1190 560 1190 560 1120 560C1120 560 1120 560 1120 560C1050 560 1050 560 980 560C910 560 910 560 840 560C770 560 770 560 700 560C630 560 630 560 560 560C490 560 490 560 420 560C350 560 350 560 280 560C230 560 201.65 589.16 180 560C149.69 519.16 189.88 486.08 176.08 420C169.88 390.34 167.1 373.44 140 368.53C79.06 357.48 39.67 413.16 0 388.07C-30.33 368.89 0 334.03 0 280C0 210 0 210 0 140C0 76.18 -3.31 75.26 0 12.35" stroke="rgba(133, 132, 203, 1)" stroke-width="2"></path><path d="M140 132.63C134.18 132.63 127.65 136.01 127.65 140C127.65 144.26 134.28 149.13 140 149.13C144.58 149.13 148.24 144.34 148.24 140C148.24 136.09 144.47 132.63 140 132.63" stroke="rgba(133, 132, 203, 1)" stroke-width="2"></path><path d="M420 130.67C415.44 131.92 417.14 135.71 417.14 140C417.14 141.75 418.77 141.19 420 142.75C474.05 211.19 472.7 212.35 527.69 280C542.7 298.47 544.84 315 560 315C573.8 315 579.17 300.35 585.61 280C606.85 212.85 624.04 200.76 615.35 140C611.24 111.25 591.37 102.48 560 100.98C493.7 97.81 486.87 112.41 420 130.67" stroke="rgba(133, 132, 203, 1)" stroke-width="2"></path><path d="M980 109.87C923.25 109.87 866.67 111.7 866.67 140C866.67 176.35 922.74 239.17 980 239.17C1038.9 239.17 1099 176.07 1099 140C1099 111.42 1039.41 109.87 980 109.87" stroke="rgba(133, 132, 203, 1)" stroke-width="2"></path><path d="M980 309.7C919.88 309.7 845.19 378.31 845.19 420C845.19 453.68 914.43 460.44 980 460.44C1021.4 460.44 1059.13 449.82 1059.13 420C1059.13 374.45 1026.85 309.7 980 309.7" stroke="rgba(133, 132, 203, 1)" stroke-width="2"></path><path d="M0 459.57C31.92 459.57 107.44 530.98 107.44 560C107.44 581.2 27.77 585.95 0 560C-25.95 535.74 -21.8 459.57 0 459.57" stroke="rgba(133, 132, 203, 1)" stroke-width="2"></path><path d="M0 115.29C7.24 115.29 10.99 129.23 24.71 140C80.99 184.19 86.64 225.22 140 225.22C182.71 225.22 216.86 180.55 216.86 140C216.86 103.56 177.46 106.64 140 71.23C103.41 36.64 68.77 20.86 68.77 0C68.77 -14.75 104.38 0 140 0C183.19 0 190.38 -15.81 226.38 0C260.38 14.92 253.55 30.42 280 61.46C313.21 100.42 310.81 102.63 345.71 140C380.81 177.59 385.31 173.47 420 211.37C449.38 243.47 445.35 247.03 473.85 280C515.35 328.01 519.58 373.33 560 373.33C596.8 373.33 599.17 329.7 628.29 280C667.54 213.03 713.21 197 696.74 140C679.06 78.81 630.85 87.62 560 43.61C518.15 17.62 471.33 11.49 471.33 0C471.33 -10.31 515.66 0 560 0C630 0 630 0 700 0C750 0 798.82 -26.08 800 0C802 43.92 695.58 87.84 706.36 140C715.58 184.57 779.96 156.12 840 193.45C892.55 226.12 931.54 237.33 931.54 280C931.54 321.64 887.76 323.53 840 362.07C801.01 393.53 758.05 391.97 758.05 420C758.05 447.18 794.97 456.41 840 472.5C905.95 496.07 915.05 474.1 980 499.33C1027.7 517.85 1065.31 543.29 1065.31 560C1065.31 573.62 1022.65 560 980 560C910 560 910 560 840 560C785.1 560 774.74 577.5 730.2 560C704.74 550 726.13 516.72 700 505C641.03 478.54 630.04 483.89 560 483.64C490.04 483.39 487.77 485.52 420 504C347.77 523.7 331.15 580.67 280 560C227.23 538.67 250.88 487.18 212.16 420C180.88 365.71 190.13 339.11 140 317.06C84.05 292.45 52.53 340.58 0 326.67C-17.47 322.05 0 303.34 0 280C0 210 0 210 0 140C0 127.64 -5.12 115.29 0 115.29" stroke="rgba(133, 132, 203, 1)" stroke-width="2"></path><path d="M980 65.57C932.71 65.57 878.43 17.82 878.43 0C878.43 -14.97 929.21 0 980 0C1012.78 0 1045.57 -13.58 1045.57 0C1045.57 19.21 1016.28 65.57 980 65.57" stroke="rgba(133, 132, 203, 1)" stroke-width="2"></path><path d="M1260 126C1231.37 63.69 1205.22 45.04 1205.22 0C1205.22 -17.96 1232.61 0 1260 0C1330 0 1330 0 1400 0C1420.81 0 1434.38 -15.89 1441.62 0C1466.27 54.11 1439.56 74.84 1463.78 140C1488.75 207.2 1505.49 201.35 1540 264.73C1543.6 271.35 1540 272.37 1540 280C1540 350 1540 350 1540 420C1540 490 1575 525 1540 560C1505 595 1470 560 1400 560C1390.35 560 1389.34 564 1380.69 560C1319.34 531.6 1319.14 529.67 1260 495.19C1199.09 459.67 1191.2 465.25 1140.59 420C1121.2 402.66 1131.7 394.35 1120 370C1098.07 324.35 1073.33 320.56 1073.33 280C1073.33 255.24 1094.72 257.1 1120 239.35C1188.06 191.57 1190.67 195 1260 148.94C1265.44 145.32 1269.55 145 1269.55 140C1269.55 133.53 1263.53 133.69 1260 126" stroke="rgba(133, 132, 203, 1)" stroke-width="2"></path><path d="M0 535.65C7.74 535.65 26.05 552.96 26.05 560C26.05 565.14 6.73 566.29 0 560C-6.29 554.12 -5.29 535.65 0 535.65" stroke="rgba(133, 132, 203, 1)" stroke-width="2"></path><path d="M140 9.82C134.85 9.82 130.18 2.88 130.18 0C130.18 -2.03 135.09 0 140 0C145.95 0 151.91 -2.14 151.91 0C151.91 2.77 145.72 9.82 140 9.82" stroke="rgba(133, 132, 203, 1)" stroke-width="2"></path><path d="M700 41.18C661.78 41.18 612.5 10.81 612.5 0C612.5 -9.78 656.25 0 700 0C714.29 0 728.57 -7.48 728.57 0C728.57 13.11 719.81 41.18 700 41.18" stroke="rgba(133, 132, 203, 1)" stroke-width="2"></path><path d="M980 21.27C964.66 21.27 947.06 5.78 947.06 0C947.06 -4.86 963.53 0 980 0C990.63 0 1001.27 -4.41 1001.27 0C1001.27 6.23 991.77 21.27 980 21.27" stroke="rgba(133, 132, 203, 1)" stroke-width="2"></path><path d="M1260 9.33C1256.34 9.33 1255.94 3.33 1255.94 0C1255.94 -1.33 1257.97 0 1260 0C1268.75 0 1277.5 -2.19 1277.5 0C1277.5 2.48 1267.12 9.33 1260 9.33" stroke="rgba(133, 132, 203, 1)" stroke-width="2"></path><path d="M1349.09 140C1378.87 106.37 1379.74 65.33 1400 65.33C1417.64 65.33 1424.89 101.82 1424.89 140C1424.89 205.04 1414.76 206.98 1400 271.76C1398.81 276.98 1393 275.66 1393 280C1393 285.16 1396.26 285.55 1400 290.77C1446.42 355.55 1442.08 359.88 1493.33 420C1512.08 442 1531.67 430 1540 455C1555 500 1560 527.5 1540 560C1527.69 580 1500.33 575.88 1475.38 560C1430.33 531.33 1447.89 499.73 1400 470.91C1340.2 434.92 1329.02 452.83 1260 430.37C1250.78 427.37 1247.84 428.53 1243.53 420C1209.84 353.34 1178.93 340.57 1184 280C1187.16 242.27 1223.92 254 1260 223.4C1306.46 184 1308.87 185.41 1349.09 140" stroke="rgba(133, 132, 203, 1)" stroke-width="2"></path><path d="M221.67 280C228.79 226.21 240.11 180 280 180C339.28 180 350 230 420 280C420 280 420 280 420 280C463.08 350 506.15 367.88 506.15 420C506.15 448.06 462.48 428.05 420 440.36C349.41 460.82 337.44 492.34 280 485.53C251.57 482.16 258.11 454.75 248.25 420C228.95 351.99 212.91 346.21 221.67 280" stroke="rgba(133, 132, 203, 1)" stroke-width="2"></path><path d="M670.98 280C670.98 249.76 673.79 225.5 700 221.95C758.3 214.05 773.3 233.51 840 257.09C855.41 262.54 864.23 268.71 864.23 280C864.23 291.02 854.02 293.6 840 301.72C771.9 341.2 751.86 381.86 700 375.2C667.35 371 670.98 326.38 670.98 280" stroke="rgba(133, 132, 203, 1)" stroke-width="2"></path><path d="M798.82 560C798.82 550.79 815.3 530.16 840 527.19C905.89 519.27 912.7 525.28 980 538.22C998.01 541.68 1010.63 554 1010.63 560C1010.63 564.89 995.32 560 980 560C910 560 910 560 840 560C819.41 560 798.82 567.2 798.82 560" stroke="rgba(133, 132, 203, 1)" stroke-width="2"></path></g><defs><mask id="SvgjsMask1050"><rect width="1440" height="560" fill="#ffffff"></rect></mask><linearGradient x1="50%" y1="0%" x2="50%" y2="100%" gradientUnits="userSpaceOnUse" id="SvgjsLinearGradient1051"><stop stop-color="#0e2a47" offset="0"></stop><stop stop-color="rgba(79, 74, 124, 1)" offset="1"></stop></linearGradient></defs></svg>