<svg width="107" height="94" viewBox="0 0 107 94" fill="none" xmlns="http://www.w3.org/2000/svg">
<g filter="url(#filter0_d_2_6)">
<path d="M20 41C20 32.1634 27.1634 25 36 25H71C79.8366 25 87 32.1634 87 41V53C87 61.8366 79.8366 69 71 69H36C27.1634 69 20 61.8366 20 53V41Z" fill="#13087B"/>
</g>
<g clip-path="url(#clip0_2_6)">
<path d="M46.6082 37.8178C45.7115 37.4008 44.9585 36.7274 44.4446 35.8825C43.9306 35.0376 43.6788 34.0593 43.7208 33.0713C43.7629 32.0833 44.0969 31.13 44.6808 30.3318C45.2647 29.5337 46.0721 28.9266 47.001 28.5873C47.9299 28.2481 48.9385 28.1919 49.8994 28.4259C50.8602 28.6599 51.73 29.1735 52.3989 29.9019C53.0678 30.6303 53.5057 31.5406 53.6573 32.5179C53.8088 33.4951 53.6671 34.4953 53.2502 35.392C52.6911 36.5945 51.6772 37.5256 50.4316 37.9805C49.186 38.4354 47.8106 38.3769 46.6082 37.8178ZM49.419 31.7726C49.1201 31.6336 48.7867 31.5864 48.4609 31.6369C48.1352 31.6874 47.8317 31.8334 47.5889 32.0564C47.3462 32.2793 47.1749 32.5693 47.0969 32.8896C47.019 33.2098 47.0377 33.546 47.1508 33.8557C47.2638 34.1653 47.4662 34.4345 47.7323 34.6291C47.9983 34.8237 48.3161 34.9351 48.6454 34.9491C48.9748 34.9631 49.3009 34.8791 49.5825 34.7078C49.8641 34.5365 50.0886 34.2855 50.2276 33.9866C50.4139 33.5858 50.4335 33.1274 50.2818 32.7122C50.1302 32.297 49.8198 31.959 49.419 31.7726Z" fill="white"/>
<path d="M51.4597 51.1017C50.563 50.6848 49.8101 50.0113 49.2961 49.1664C48.7822 48.3216 48.5303 47.3433 48.5723 46.3552C48.6144 45.3672 48.9485 44.4139 49.5323 43.6157C50.1162 42.8176 50.9237 42.2105 51.8525 41.8713C52.7814 41.532 53.7901 41.4758 54.7509 41.7098C55.7117 41.9438 56.5816 42.4575 57.2505 43.1858C57.9194 43.9142 58.3573 44.8245 58.5088 45.8018C58.6603 46.779 58.5186 47.7792 58.1017 48.6759C57.5426 49.8784 56.5287 50.8095 55.2831 51.2644C54.0375 51.7193 52.6622 51.6608 51.4597 51.1017ZM54.2705 45.0565C53.9716 44.9176 53.6382 44.8703 53.3125 44.9208C52.9867 44.9714 52.6833 45.1173 52.4405 45.3403C52.1977 45.5632 52.0265 45.8532 51.9485 46.1735C51.8705 46.4938 51.8892 46.83 52.0023 47.1396C52.1154 47.4492 52.3177 47.7184 52.5838 47.913C52.8498 48.1076 53.1676 48.219 53.497 48.233C53.8263 48.247 54.1524 48.1631 54.434 47.9917C54.7156 47.8204 54.9401 47.5694 55.0791 47.2705C55.2655 46.8697 55.285 46.4113 55.1334 45.9961C54.9817 45.5809 54.6713 45.2429 54.2705 45.0565Z" fill="white"/>
<path d="M64.7437 46.2502C63.8469 45.8332 63.094 45.1597 62.5801 44.3149C62.0661 43.47 61.8142 42.4917 61.8563 41.5037C61.8983 40.5157 62.2324 39.5623 62.8163 38.7642C63.4001 37.9661 64.2076 37.359 65.1365 37.0197C66.0654 36.6805 67.074 36.6243 68.0348 36.8583C68.9956 37.0923 69.8655 37.6059 70.5344 38.3343C71.2033 39.0626 71.6412 39.973 71.7927 40.9502C71.9442 41.9275 71.8026 42.9277 71.3856 43.8244C70.8265 45.0268 69.8126 45.958 68.567 46.4129C67.3214 46.8678 65.9461 46.8093 64.7437 46.2502ZM67.5544 40.205C67.2555 40.066 66.9221 40.0188 66.5964 40.0693C66.2707 40.1198 65.9672 40.2658 65.7244 40.4887C65.4816 40.7117 65.3104 41.0017 65.2324 41.3219C65.1544 41.6422 65.1731 41.9784 65.2862 42.2881C65.3993 42.5977 65.6017 42.8668 65.8677 43.0615C66.1338 43.2561 66.4515 43.3674 66.7809 43.3815C67.1102 43.3955 67.4363 43.3115 67.7179 43.1402C67.9996 42.9689 68.2241 42.7179 68.363 42.419C68.5494 42.0182 68.5689 41.5597 68.4173 41.1445C68.2656 40.7293 67.9553 40.3914 67.5544 40.205Z" fill="white"/>
<path d="M56.3113 64.3856C55.4146 63.9687 54.6616 63.2952 54.1477 62.4503C53.6337 61.6055 53.3818 60.6272 53.4239 59.6392C53.4659 58.6512 53.8 57.6978 54.3839 56.8997C54.9678 56.1015 55.7752 55.4944 56.7041 55.1552C57.633 54.8159 58.6416 54.7597 59.6024 54.9937C60.5633 55.2277 61.4331 55.7414 62.102 56.4697C62.7709 57.1981 63.2088 58.1085 63.3603 59.0857C63.5119 60.0629 63.3702 61.0631 62.9532 61.9599C62.3941 63.1623 61.3803 64.0934 60.1346 64.5483C58.889 65.0033 57.5137 64.9447 56.3113 64.3856ZM59.1221 58.3405C58.8232 58.2015 58.4898 58.1543 58.164 58.2048C57.8383 58.2553 57.5348 58.4012 57.292 58.6242C57.0492 58.8472 56.878 59.1371 56.8 59.4574C56.722 59.7777 56.7408 60.1139 56.8538 60.4235C56.9669 60.7331 57.1693 61.0023 57.4353 61.1969C57.7014 61.3915 58.0192 61.5029 58.3485 61.5169C58.6778 61.5309 59.0039 61.447 59.2856 61.2757C59.5672 61.1043 59.7917 60.8534 59.9307 60.5545C60.117 60.1536 60.1365 59.6952 59.9849 59.28C59.8333 58.8648 59.5229 58.5268 59.1221 58.3405Z" fill="white"/>
<path d="M38.1758 55.9532C37.2791 55.5363 36.5262 54.8628 36.0122 54.018C35.4983 53.1731 35.2464 52.1948 35.2884 51.2068C35.3305 50.2188 35.6646 49.2654 36.2484 48.4673C36.8323 47.6691 37.6397 47.0621 38.5686 46.7228C39.4975 46.3836 40.5062 46.3274 41.467 46.5614C42.4278 46.7953 43.2977 47.309 43.9666 48.0374C44.6355 48.7657 45.0734 49.6761 45.2249 50.6533C45.3764 51.6305 45.2347 52.6308 44.8178 53.5275C44.2587 54.7299 43.2448 55.661 41.9992 56.116C40.7536 56.5709 39.3783 56.5123 38.1758 55.9532ZM40.9866 49.9081C40.6877 49.7691 40.3543 49.7219 40.0286 49.7724C39.7028 49.8229 39.3994 49.9689 39.1566 50.1918C38.9138 50.4148 38.7426 50.7047 38.6646 51.025C38.5866 51.3453 38.6053 51.6815 38.7184 51.9911C38.8315 52.3008 39.0338 52.5699 39.2999 52.7645C39.5659 52.9592 39.8837 53.0705 40.213 53.0845C40.5424 53.0986 40.8685 53.0146 41.1501 52.8433C41.4317 52.672 41.6562 52.421 41.7952 52.1221C41.9816 51.7213 42.0011 51.2628 41.8494 50.8476C41.6978 50.4324 41.3874 50.0945 40.9866 49.9081Z" fill="white"/>
<path d="M51.3265 35.5797L48.1955 36.7233L50.9571 44.2847L54.0881 43.1412L51.3265 35.5797Z" fill="white"/>
<path d="M63.4293 41.1893L55.8678 43.9509L57.0113 47.0819L64.5728 44.3203L63.4293 41.1893Z" fill="white"/>
<path d="M50.1417 46.0488L42.5802 48.8104L43.7237 51.9415L51.2852 49.1799L50.1417 46.0488Z" fill="white"/>
<path d="M56.186 48.8674L53.055 50.0109L55.8166 57.5724L58.9476 56.4289L56.186 48.8674Z" fill="white"/>
<g clip-path="url(#clip1_2_6)">
<path d="M47.0194 38.1193C46.1227 37.7023 45.3698 37.0288 44.8558 36.184C44.3419 35.3391 44.09 34.3608 44.132 33.3728C44.1741 32.3848 44.5082 31.4314 45.092 30.6333C45.6759 29.8352 46.4833 29.2281 47.4122 28.8888C48.3411 28.5496 49.3498 28.4934 50.3106 28.7274C51.2714 28.9614 52.1413 29.475 52.8102 30.2034C53.4791 30.9318 53.917 31.8421 54.0685 32.8193C54.22 33.7966 54.0783 34.7968 53.6614 35.6935C53.1023 36.896 52.0884 37.8271 50.8428 38.282C49.5972 38.7369 48.2219 38.6784 47.0194 38.1193ZM49.8302 32.0741C49.5313 31.9351 49.1979 31.8879 48.8722 31.9384C48.5464 31.9889 48.243 32.1349 48.0002 32.3579C47.7574 32.5808 47.5862 32.8708 47.5082 33.191C47.4302 33.5113 47.4489 33.8475 47.562 34.1572C47.6751 34.4668 47.8774 34.7359 48.1435 34.9306C48.4095 35.1252 48.7273 35.2366 49.0566 35.2506C49.386 35.2646 49.7121 35.1806 49.9937 35.0093C50.2753 34.838 50.4998 34.587 50.6388 34.2881C50.8252 33.8873 50.8447 33.4288 50.693 33.0136C50.5414 32.5984 50.231 32.2605 49.8302 32.0741Z" fill="white"/>
<path d="M51.871 51.4032C50.9742 50.9863 50.2213 50.3128 49.7074 49.4679C49.1934 48.623 48.9415 47.6447 48.9836 46.6567C49.0256 45.6687 49.3597 44.7154 49.9436 43.9172C50.5274 43.1191 51.3349 42.512 52.2638 42.1728C53.1927 41.8335 54.2013 41.7773 55.1621 42.0113C56.123 42.2453 56.9928 42.759 57.6617 43.4873C58.3306 44.2157 58.7685 45.126 58.92 46.1033C59.0715 47.0805 58.9299 48.0807 58.5129 48.9774C57.9538 50.1799 56.9399 51.111 55.6943 51.5659C54.4487 52.0208 53.0734 51.9623 51.871 51.4032ZM54.6818 45.358C54.3828 45.2191 54.0494 45.1718 53.7237 45.2223C53.398 45.2728 53.0945 45.4188 52.8517 45.6418C52.6089 45.8647 52.4377 46.1547 52.3597 46.475C52.2817 46.7952 52.3004 47.1315 52.4135 47.4411C52.5266 47.7507 52.729 48.0199 52.995 48.2145C53.2611 48.4091 53.5789 48.5205 53.9082 48.5345C54.2375 48.5485 54.5636 48.4645 54.8452 48.2932C55.1269 48.1219 55.3514 47.8709 55.4903 47.572C55.6767 47.1712 55.6962 46.7128 55.5446 46.2976C55.3929 45.8824 55.0826 45.5444 54.6818 45.358Z" fill="white"/>
<path d="M65.1549 46.5517C64.2582 46.1347 63.5052 45.4612 62.9913 44.6164C62.4773 43.7715 62.2254 42.7932 62.2675 41.8052C62.3095 40.8172 62.6436 39.8638 63.2275 39.0657C63.8114 38.2675 64.6188 37.6605 65.5477 37.3212C66.4766 36.982 67.4852 36.9258 68.446 37.1598C69.4069 37.3938 70.2767 37.9074 70.9456 38.6358C71.6145 39.3641 72.0524 40.2745 72.2039 41.2517C72.3555 42.229 72.2138 43.2292 71.7968 44.1259C71.2377 45.3283 70.2239 46.2594 68.9783 46.7144C67.7326 47.1693 66.3573 47.1108 65.1549 46.5517ZM67.9657 40.5065C67.6668 40.3675 67.3334 40.3203 67.0076 40.3708C66.6819 40.4213 66.3784 40.5673 66.1356 40.7902C65.8928 41.0132 65.7216 41.3032 65.6436 41.6234C65.5656 41.9437 65.5844 42.2799 65.6974 42.5895C65.8105 42.8992 66.0129 43.1683 66.2789 43.3629C66.545 43.5576 66.8628 43.6689 67.1921 43.6829C67.5214 43.697 67.8475 43.613 68.1292 43.4417C68.4108 43.2704 68.6353 43.0194 68.7743 42.7205C68.9606 42.3197 68.9801 41.8612 68.8285 41.446C68.6769 41.0308 68.3665 40.6929 67.9657 40.5065Z" fill="white"/>
<path d="M56.7225 64.6871C55.8258 64.2702 55.0728 63.5967 54.5589 62.7518C54.0449 61.907 53.7931 60.9287 53.8351 59.9407C53.8772 58.9526 54.2112 57.9993 54.7951 57.2011C55.379 56.403 56.1864 55.7959 57.1153 55.4567C58.0442 55.1174 59.0528 55.0612 60.0137 55.2952C60.9745 55.5292 61.8444 56.0429 62.5133 56.7712C63.1822 57.4996 63.62 58.41 63.7716 59.3872C63.9231 60.3644 63.7814 61.3646 63.3645 62.2613C62.8054 63.4638 61.7915 64.3949 60.5459 64.8498C59.3003 65.3047 57.925 65.2462 56.7225 64.6871ZM59.5333 58.642C59.2344 58.503 58.901 58.4558 58.5752 58.5063C58.2495 58.5568 57.946 58.7027 57.7033 58.9257C57.4605 59.1487 57.2893 59.4386 57.2113 59.7589C57.1333 60.0792 57.152 60.4154 57.2651 60.725C57.3782 61.0346 57.5805 61.3038 57.8466 61.4984C58.1126 61.693 58.4304 61.8044 58.7597 61.8184C59.0891 61.8324 59.4152 61.7485 59.6968 61.5771C59.9784 61.4058 60.2029 61.1549 60.3419 60.8559C60.5282 60.4551 60.5478 59.9967 60.3961 59.5815C60.2445 59.1663 59.9341 58.8283 59.5333 58.642Z" fill="white"/>
<path d="M38.587 56.2547C37.6903 55.8378 36.9374 55.1643 36.4234 54.3194C35.9095 53.4746 35.6576 52.4963 35.6997 51.5083C35.7417 50.5203 36.0758 49.5669 36.6597 48.7688C37.2435 47.9706 38.051 47.3635 38.9799 47.0243C39.9087 46.685 40.9174 46.6289 41.8782 46.8628C42.839 47.0968 43.7089 47.6105 44.3778 48.3389C45.0467 49.0672 45.4846 49.9776 45.6361 50.9548C45.7876 51.932 45.6459 52.9322 45.229 53.829C44.6699 55.0314 43.656 55.9625 42.4104 56.4174C41.1648 56.8724 39.7895 56.8138 38.587 56.2547ZM41.3978 50.2096C41.0989 50.0706 40.7655 50.0234 40.4398 50.0739C40.114 50.1244 39.8106 50.2703 39.5678 50.4933C39.325 50.7163 39.1538 51.0062 39.0758 51.3265C38.9978 51.6468 39.0165 51.983 39.1296 52.2926C39.2427 52.6023 39.4451 52.8714 39.7111 53.066C39.9771 53.2607 40.2949 53.372 40.6243 53.386C40.9536 53.4 41.2797 53.3161 41.5613 53.1448C41.8429 52.9734 42.0674 52.7225 42.2064 52.4236C42.3928 52.0227 42.4123 51.5643 42.2607 51.1491C42.109 50.7339 41.7987 50.3959 41.3978 50.2096Z" fill="white"/>
<path d="M51.7377 35.8812L48.6067 37.0247L51.3683 44.5862L54.4993 43.4427L51.7377 35.8812Z" fill="white"/>
<path d="M63.8405 41.4908L56.279 44.2524L57.4226 47.3834L64.984 44.6218L63.8405 41.4908Z" fill="white"/>
<path d="M50.5529 46.3503L42.9914 49.1119L44.1349 52.243L51.6964 49.4814L50.5529 46.3503Z" fill="white"/>
<path d="M56.5973 49.1689L53.4662 50.3124L56.2278 57.8739L59.3588 56.7303L56.5973 49.1689Z" fill="white"/>
<g clip-path="url(#clip2_2_6)">
<path d="M47.3642 38.445C46.4675 38.0281 45.7146 37.3546 45.2006 36.5097C44.6867 35.6649 44.4348 34.6866 44.4768 33.6986C44.5189 32.7105 44.853 31.7572 45.4368 30.959C46.0207 30.1609 46.8281 29.5538 47.757 29.2146C48.6859 28.8753 49.6946 28.8191 50.6554 29.0531C51.6162 29.2871 52.4861 29.8008 53.155 30.5291C53.8239 31.2575 54.2618 32.1679 54.4133 33.1451C54.5648 34.1223 54.4231 35.1225 54.0062 36.0192C53.4471 37.2217 52.4332 38.1528 51.1876 38.6077C49.942 39.0626 48.5667 39.0041 47.3642 38.445ZM50.175 32.3999C49.8761 32.2609 49.5427 32.2137 49.217 32.2642C48.8912 32.3147 48.5878 32.4606 48.345 32.6836C48.1022 32.9066 47.931 33.1965 47.853 33.5168C47.775 33.8371 47.7937 34.1733 47.9068 34.4829C48.0199 34.7925 48.2222 35.0617 48.4883 35.2563C48.7543 35.4509 49.0721 35.5623 49.4015 35.5763C49.7308 35.5903 50.0569 35.5064 50.3385 35.3351C50.6201 35.1637 50.8446 34.9128 50.9836 34.6138C51.17 34.213 51.1895 33.7546 51.0378 33.3394C50.8862 32.9242 50.5758 32.5862 50.175 32.3999Z" fill="white"/>
<path d="M52.2158 51.7289C51.319 51.312 50.5661 50.6385 50.0522 49.7936C49.5382 48.9488 49.2863 47.9705 49.3284 46.9825C49.3704 45.9945 49.7045 45.0411 50.2884 44.243C50.8722 43.4448 51.6797 42.8377 52.6086 42.4985C53.5375 42.1592 54.5461 42.1031 55.5069 42.3371C56.4678 42.571 57.3376 43.0847 58.0065 43.8131C58.6754 44.5414 59.1133 45.4518 59.2648 46.429C59.4163 47.4062 59.2747 48.4065 58.8577 49.3032C58.2986 50.5056 57.2847 51.4367 56.0391 51.8916C54.7935 52.3466 53.4182 52.288 52.2158 51.7289ZM55.0266 45.6838C54.7277 45.5448 54.3942 45.4976 54.0685 45.5481C53.7428 45.5986 53.4393 45.7446 53.1965 45.9675C52.9537 46.1905 52.7825 46.4804 52.7045 46.8007C52.6265 47.121 52.6452 47.4572 52.7583 47.7668C52.8714 48.0765 53.0738 48.3456 53.3398 48.5402C53.6059 48.7349 53.9237 48.8462 54.253 48.8602C54.5823 48.8742 54.9084 48.7903 55.19 48.619C55.4717 48.4477 55.6962 48.1967 55.8351 47.8978C56.0215 47.497 56.041 47.0385 55.8894 46.6233C55.7377 46.2081 55.4274 45.8702 55.0266 45.6838Z" fill="white"/>
<path d="M65.4997 46.8774C64.603 46.4605 63.85 45.787 63.3361 44.9421C62.8221 44.0972 62.5703 43.119 62.6123 42.1309C62.6543 41.1429 62.9884 40.1896 63.5723 39.3914C64.1562 38.5933 64.9636 37.9862 65.8925 37.647C66.8214 37.3077 67.83 37.2515 68.7909 37.4855C69.7517 37.7195 70.6215 38.2332 71.2904 38.9615C71.9593 39.6899 72.3972 40.6002 72.5487 41.5775C72.7003 42.5547 72.5586 43.5549 72.1416 44.4516C71.5825 45.6541 70.5687 46.5852 69.3231 47.0401C68.0774 47.495 66.7021 47.4365 65.4997 46.8774ZM68.3105 40.8322C68.0116 40.6933 67.6782 40.646 67.3524 40.6965C67.0267 40.747 66.7232 40.893 66.4804 41.116C66.2377 41.3389 66.0664 41.6289 65.9884 41.9492C65.9104 42.2694 65.9292 42.6057 66.0423 42.9153C66.1553 43.2249 66.3577 43.4941 66.6237 43.6887C66.8898 43.8833 67.2076 43.9947 67.5369 44.0087C67.8662 44.0227 68.1923 43.9387 68.474 43.7674C68.7556 43.5961 68.9801 43.3451 69.1191 43.0462C69.3054 42.6454 69.3249 42.187 69.1733 41.7718C69.0217 41.3566 68.7113 41.0186 68.3105 40.8322Z" fill="white"/>
<path d="M57.0673 65.0129C56.1706 64.5959 55.4177 63.9224 54.9037 63.0776C54.3898 62.2327 54.1379 61.2544 54.1799 60.2664C54.222 59.2784 54.556 58.325 55.1399 57.5269C55.7238 56.7287 56.5312 56.1217 57.4601 55.7824C58.389 55.4432 59.3976 55.387 60.3585 55.621C61.3193 55.855 62.1892 56.3686 62.8581 57.097C63.527 57.8253 63.9649 58.7357 64.1164 59.7129C64.2679 60.6902 64.1262 61.6904 63.7093 62.5871C63.1502 63.7895 62.1363 64.7206 60.8907 65.1756C59.6451 65.6305 58.2698 65.572 57.0673 65.0129ZM59.8781 58.9677C59.5792 58.8287 59.2458 58.7815 58.92 58.832C58.5943 58.8825 58.2908 59.0285 58.0481 59.2514C57.8053 59.4744 57.6341 59.7644 57.5561 60.0846C57.4781 60.4049 57.4968 60.7411 57.6099 61.0508C57.723 61.3604 57.9253 61.6295 58.1914 61.8242C58.4574 62.0188 58.7752 62.1301 59.1045 62.1442C59.4339 62.1582 59.76 62.0742 60.0416 61.9029C60.3232 61.7316 60.5477 61.4806 60.6867 61.1817C60.8731 60.7809 60.8926 60.3224 60.7409 59.9072C60.5893 59.492 60.2789 59.1541 59.8781 58.9677Z" fill="white"/>
<path d="M38.9318 56.5805C38.0351 56.1635 37.2822 55.4901 36.7682 54.6452C36.2543 53.8003 36.0024 52.822 36.0445 51.834C36.0865 50.846 36.4206 49.8927 37.0045 49.0945C37.5883 48.2964 38.3958 47.6893 39.3247 47.35C40.2536 47.0108 41.2622 46.9546 42.223 47.1886C43.1838 47.4226 44.0537 47.9362 44.7226 48.6646C45.3915 49.393 45.8294 50.3033 45.9809 51.2805C46.1324 52.2578 45.9907 53.258 45.5738 54.1547C45.0147 55.3572 44.0008 56.2883 42.7552 56.7432C41.5096 57.1981 40.1343 57.1396 38.9318 56.5805ZM41.7426 50.5353C41.4437 50.3963 41.1103 50.3491 40.7846 50.3996C40.4588 50.4501 40.1554 50.5961 39.9126 50.8191C39.6698 51.042 39.4986 51.332 39.4206 51.6523C39.3426 51.9725 39.3613 52.3087 39.4744 52.6184C39.5875 52.928 39.7899 53.1971 40.0559 53.3918C40.322 53.5864 40.6397 53.6978 40.9691 53.7118C41.2984 53.7258 41.6245 53.6418 41.9061 53.4705C42.1877 53.2992 42.4122 53.0482 42.5512 52.7493C42.7376 52.3485 42.7571 51.8901 42.6055 51.4749C42.4538 51.0596 42.1435 50.7217 41.7426 50.5353Z" fill="white"/>
<path d="M52.0825 36.207L48.9515 37.3505L51.7131 44.912L54.8441 43.7685L52.0825 36.207Z" fill="white"/>
<path d="M64.1853 41.8165L56.6238 44.5781L57.7674 47.7092L65.3289 44.9476L64.1853 41.8165Z" fill="white"/>
<path d="M50.8977 46.676L43.3362 49.4376L44.4797 52.5687L52.0412 49.8071L50.8977 46.676Z" fill="white"/>
<path d="M56.9421 49.4946L53.811 50.6381L56.5726 58.1996L59.7037 57.0561L56.9421 49.4946Z" fill="white"/>
</g>
</g>
</g>
<defs>
<filter id="filter0_d_2_6" x="16" y="25" width="75" height="52" filterUnits="userSpaceOnUse" color-interpolation-filters="sRGB">
<feFlood flood-opacity="0" result="BackgroundImageFix"/>
<feColorMatrix in="SourceAlpha" type="matrix" values="0 0 0 0 0 0 0 0 0 0 0 0 0 0 0 0 0 0 127 0" result="hardAlpha"/>
<feOffset dy="4"/>
<feGaussianBlur stdDeviation="2"/>
<feComposite in2="hardAlpha" operator="out"/>
<feColorMatrix type="matrix" values="0 0 0 0 0 0 0 0 0 0 0 0 0 0 0 0 0 0 0.25 0"/>
<feBlend mode="normal" in2="BackgroundImageFix" result="effect1_dropShadow_2_6"/>
<feBlend mode="normal" in="SourceGraphic" in2="effect1_dropShadow_2_6" result="shape"/>
</filter>
<clipPath id="clip0_2_6">
<rect width="40" height="40" fill="white" transform="translate(43.8647 20) rotate(24.9368)"/>
</clipPath>
<clipPath id="clip1_2_6">
<rect width="40" height="40" fill="white" transform="translate(44.276 20.3015) rotate(24.9368)"/>
</clipPath>
<clipPath id="clip2_2_6">
<rect width="40" height="40" fill="white" transform="translate(44.6208 20.6272) rotate(24.9368)"/>
</clipPath>
</defs>
</svg>
