<svg width="217" height="113" viewBox="0 0 217 113" fill="none" xmlns="http://www.w3.org/2000/svg">
<g clip-path="url(#clip0_0_1)">
<path d="M170.487 25.8975C169.542 24.7542 168.957 23.3564 168.806 21.8807C168.656 20.405 168.946 18.9178 169.64 17.6071C170.335 16.2963 171.402 15.221 172.708 14.517C174.014 13.813 175.499 13.5119 176.976 13.652C178.452 13.792 179.854 14.3668 181.004 15.3036C182.154 16.2405 183.001 17.4974 183.437 18.9153C183.872 20.3332 183.878 21.8485 183.452 23.2695C183.027 24.6906 182.19 25.9535 181.046 26.8987C179.513 28.1662 177.54 28.7728 175.56 28.585C173.579 28.3972 171.755 27.4305 170.487 25.8975ZM178.194 19.5255C177.879 19.1444 177.458 18.8653 176.985 18.7235C176.511 18.5817 176.006 18.5835 175.533 18.7288C175.06 18.874 174.642 19.1562 174.329 19.5395C174.017 19.9229 173.825 20.3902 173.779 20.8825C173.732 21.3747 173.832 21.8698 174.067 22.305C174.302 22.7402 174.66 23.096 175.097 23.3275C175.534 23.559 176.03 23.6558 176.522 23.6055C177.013 23.5553 177.479 23.3603 177.861 23.0452C178.372 22.6227 178.694 22.0146 178.756 21.3545C178.819 20.6944 178.617 20.0365 178.194 19.5255Z" fill="white"/>
<path d="M168.485 47.0159C167.54 45.8727 166.955 44.4749 166.804 42.9992C166.653 41.5235 166.943 40.0363 167.638 38.7255C168.332 37.4148 169.4 36.3394 170.705 35.6354C172.011 34.9314 173.496 34.6304 174.973 34.7704C176.45 34.9105 177.852 35.4853 179.002 36.4221C180.152 37.359 180.998 38.6158 181.434 40.0337C181.87 41.4517 181.875 42.9669 181.45 44.388C181.024 45.809 180.187 47.072 179.044 48.0172C177.511 49.2847 175.537 49.8912 173.557 49.7035C171.577 49.5157 169.752 48.549 168.485 47.0159ZM176.192 40.644C175.877 40.2629 175.456 39.9838 174.982 39.842C174.508 39.7002 174.003 39.702 173.531 39.8472C173.058 39.9925 172.639 40.2746 172.327 40.658C172.014 41.0414 171.823 41.5087 171.776 42.0009C171.729 42.4932 171.83 42.9882 172.064 43.4234C172.299 43.8587 172.658 44.2145 173.095 44.446C173.531 44.6775 174.027 44.7743 174.519 44.724C175.011 44.6737 175.477 44.4788 175.858 44.1637C176.369 43.7412 176.691 43.133 176.754 42.4729C176.816 41.8129 176.614 41.155 176.192 40.644Z" fill="white"/>
<path d="M189.603 49.0185C188.658 47.8752 188.073 46.4774 187.922 45.0017C187.772 43.526 188.062 42.0388 188.756 40.7281C189.451 39.4173 190.518 38.3419 191.824 37.6379C193.13 36.9339 194.615 36.6329 196.091 36.773C197.568 36.913 198.97 37.4878 200.12 38.4246C201.27 39.3615 202.117 40.6183 202.553 42.0363C202.988 43.4542 202.994 44.9695 202.568 46.3905C202.143 47.8115 201.306 49.0745 200.162 50.0197C198.629 51.2872 196.656 51.8937 194.675 51.706C192.695 51.5182 190.871 50.5515 189.603 49.0185ZM197.31 42.6465C196.995 42.2654 196.574 41.9863 196.1 41.8445C195.627 41.7027 195.122 41.7045 194.649 41.8498C194.176 41.995 193.757 42.2772 193.445 42.6605C193.133 43.0439 192.941 43.5112 192.895 44.0035C192.848 44.4957 192.948 44.9907 193.183 45.426C193.418 45.8612 193.776 46.217 194.213 46.4485C194.65 46.68 195.146 46.7768 195.638 46.7265C196.129 46.6763 196.595 46.4813 196.976 46.1662C197.487 45.7437 197.81 45.1355 197.872 44.4755C197.935 43.8154 197.733 43.1575 197.31 42.6465Z" fill="white"/>
<path d="M166.482 68.1344C165.537 66.9912 164.952 65.5934 164.801 64.1177C164.651 62.642 164.941 61.1547 165.635 59.844C166.33 58.5333 167.397 57.4579 168.703 56.7539C170.009 56.0499 171.494 55.7489 172.97 55.8889C174.447 56.0289 175.849 56.6037 176.999 57.5406C178.149 58.4774 178.996 59.7343 179.432 61.1522C179.867 62.5701 179.873 64.0854 179.447 65.5065C179.022 66.9275 178.185 68.1905 177.041 69.1357C175.508 70.4031 173.535 71.0097 171.554 70.8219C169.574 70.6342 167.75 69.6674 166.482 68.1344ZM174.189 61.7624C173.874 61.3813 173.453 61.1023 172.979 60.9604C172.506 60.8186 172.001 60.8205 171.528 60.9657C171.055 61.111 170.636 61.3931 170.324 61.7765C170.012 62.1598 169.82 62.6272 169.774 63.1194C169.727 63.6117 169.827 64.1067 170.062 64.5419C170.297 64.9771 170.655 65.333 171.092 65.5645C171.529 65.796 172.025 65.8927 172.517 65.8425C173.008 65.7922 173.474 65.5972 173.855 65.2822C174.366 64.8597 174.689 64.2515 174.751 63.5914C174.814 62.9313 174.612 62.2734 174.189 61.7624Z" fill="white"/>
<path d="M147.366 45.0134C146.421 43.8702 145.836 42.4724 145.685 40.9967C145.535 39.521 145.825 38.0338 146.519 36.723C147.214 35.4123 148.281 34.3369 149.587 33.6329C150.893 32.9289 152.378 32.6279 153.855 32.7679C155.331 32.908 156.733 33.4827 157.883 34.4196C159.033 35.3565 159.88 36.6133 160.316 38.0312C160.751 39.4491 160.757 40.9644 160.331 42.3855C159.906 43.8065 159.069 45.0695 157.926 46.0147C156.392 47.2821 154.419 47.8887 152.439 47.7009C150.458 47.5132 148.634 46.5464 147.366 45.0134ZM155.073 38.6414C154.758 38.2604 154.337 37.9813 153.864 37.8395C153.39 37.6976 152.885 37.6995 152.412 37.8447C151.939 37.99 151.521 38.2721 151.208 38.6555C150.896 39.0388 150.704 39.5062 150.658 39.9984C150.611 40.4907 150.711 40.9857 150.946 41.4209C151.181 41.8561 151.539 42.212 151.976 42.4435C152.413 42.675 152.909 42.7717 153.401 42.7215C153.892 42.6712 154.358 42.4762 154.74 42.1612C155.251 41.7387 155.573 41.1305 155.635 40.4704C155.698 39.8103 155.496 39.1524 155.073 38.6414Z" fill="white"/>
<path d="M178.321 25.9116L173.343 25.4396L172.203 37.4607L177.181 37.9327L178.321 25.9116Z" fill="white"/>
<path d="M191.089 41.3174L179.068 40.1775L178.596 45.1552L190.617 46.295L191.089 41.3174Z" fill="white"/>
<path d="M169.961 39.3233L157.939 38.1834L157.467 43.1611L169.489 44.3009L169.961 39.3233Z" fill="white"/>
<path d="M176.326 47.0403L171.349 46.5683L170.209 58.5893L175.187 59.0613L176.326 47.0403Z" fill="white"/>
</g>
<path d="M0.464 53.76H17.68C20.1333 53.76 22.32 54.272 24.24 55.296C26.16 56.32 27.6747 57.8027 28.784 59.744C29.9147 61.664 30.48 63.9573 30.48 66.624C30.48 69.2907 30 71.4773 29.04 73.184C28.1013 74.8693 26.9707 76.1387 25.648 76.992C24.3253 77.824 23.0987 78.3253 21.968 78.496L32.24 96H21.488L12.336 79.232H10.032V96H0.464V53.76ZM10.032 72.608H14.256C15.9627 72.608 17.456 72.192 18.736 71.36C20.016 70.528 20.656 69.056 20.656 66.944C20.656 64.832 20.0267 63.3707 18.768 62.56C17.5093 61.728 16.0267 61.312 14.32 61.312H10.032V72.608ZM46.307 84.928C46.371 85.8667 46.6697 86.6987 47.203 87.424C47.7363 88.1493 48.4723 88.7253 49.411 89.152C50.371 89.5573 51.5017 89.76 52.803 89.76C54.0403 89.76 55.1497 89.632 56.131 89.376C57.1337 89.12 57.9977 88.8 58.723 88.416C59.4697 88.032 60.0457 87.6373 60.451 87.232L64.227 93.248C63.6937 93.824 62.9363 94.3893 61.955 94.944C60.995 95.4773 59.7257 95.9147 58.147 96.256C56.5683 96.5973 54.5737 96.768 52.163 96.768C49.2617 96.768 46.6803 96.224 44.419 95.136C42.1577 94.048 40.3763 92.448 39.075 90.336C37.7737 88.224 37.123 85.6427 37.123 82.592C37.123 80.032 37.6777 77.728 38.787 75.68C39.9177 73.6107 41.5497 71.9787 43.683 70.784C45.8163 69.568 48.387 68.96 51.395 68.96C54.2537 68.96 56.7283 69.4827 58.819 70.528C60.931 71.5733 62.5523 73.1307 63.683 75.2C64.835 77.248 65.411 79.808 65.411 82.88C65.411 83.0507 65.4003 83.392 65.379 83.904C65.379 84.416 65.3577 84.7573 65.315 84.928H46.307ZM56.259 79.84C56.2377 79.1573 56.0563 78.4853 55.715 77.824C55.3737 77.1413 54.8617 76.5867 54.179 76.16C53.4963 75.712 52.6217 75.488 51.555 75.488C50.4883 75.488 49.5817 75.7013 48.835 76.128C48.1097 76.5333 47.555 77.0667 47.171 77.728C46.787 78.3893 46.5737 79.0933 46.531 79.84H56.259ZM84.678 89.12C85.894 89.12 86.8967 88.9173 87.686 88.512C88.4753 88.0853 89.0087 87.744 89.286 87.488L93.734 94.08C93.3927 94.3573 92.806 94.72 91.974 95.168C91.142 95.5947 90.0967 95.968 88.838 96.288C87.6007 96.608 86.182 96.768 84.582 96.768C81.574 96.768 78.9287 96.2027 76.646 95.072C74.3633 93.92 72.582 92.2987 71.302 90.208C70.0433 88.1173 69.414 85.664 69.414 82.848C69.414 80.0107 70.0433 77.5573 71.302 75.488C72.582 73.4187 74.3633 71.8187 76.646 70.688C78.9287 69.536 81.574 68.96 84.582 68.96C86.1607 68.96 87.5687 69.1307 88.806 69.472C90.0647 69.792 91.1207 70.1653 91.974 70.592C92.8273 70.9973 93.4247 71.3493 93.766 71.648L89.222 78.304C89.0727 78.1547 88.7953 77.9413 88.39 77.664C88.006 77.3867 87.5047 77.1413 86.886 76.928C86.2673 76.7147 85.5313 76.608 84.678 76.608C83.6327 76.608 82.6513 76.8747 81.734 77.408C80.838 77.9413 80.1127 78.6773 79.558 79.616C79.0033 80.5547 78.726 81.632 78.726 82.848C78.726 84.064 79.0033 85.152 79.558 86.112C80.1127 87.0507 80.838 87.7867 81.734 88.32C82.6513 88.8533 83.6327 89.12 84.678 89.12ZM118.072 96V91.744C117.88 92.1707 117.389 92.7893 116.6 93.6C115.832 94.4107 114.808 95.1467 113.528 95.808C112.248 96.448 110.755 96.768 109.048 96.768C106.488 96.768 104.248 96.1493 102.328 94.912C100.408 93.6533 98.9147 91.9787 97.848 89.888C96.7813 87.776 96.248 85.44 96.248 82.88C96.248 80.32 96.7813 77.9947 97.848 75.904C98.9147 73.792 100.408 72.1067 102.328 70.848C104.248 69.5893 106.488 68.96 109.048 68.96C110.691 68.96 112.131 69.2267 113.368 69.76C114.605 70.272 115.608 70.8907 116.376 71.616C117.144 72.32 117.677 72.9707 117.976 73.568V69.728H127.64V96H118.072ZM105.784 82.88C105.784 84.0747 106.061 85.152 106.616 86.112C107.171 87.0507 107.907 87.7867 108.824 88.32C109.763 88.8533 110.797 89.12 111.928 89.12C113.101 89.12 114.136 88.8533 115.032 88.32C115.928 87.7867 116.632 87.0507 117.144 86.112C117.677 85.152 117.944 84.0747 117.944 82.88C117.944 81.6853 117.677 80.6187 117.144 79.68C116.632 78.72 115.928 77.9733 115.032 77.44C114.136 76.8853 113.101 76.608 111.928 76.608C110.797 76.608 109.763 76.8853 108.824 77.44C107.907 77.9733 107.171 78.72 106.616 79.68C106.061 80.6187 105.784 81.6853 105.784 82.88ZM143.541 96H133.781V51.968H143.541V96ZM159.541 96H149.781V51.968H159.541V96Z" fill="white"/>
<path d="M4.35742 105.729L6.63672 101.434H7.70898L4.85547 106.678V110H3.85938V106.725L1 101.434H2.08984L4.35742 105.729ZM14.2773 106.777C14.2773 107.305 14.209 107.775 14.0723 108.189C13.9355 108.604 13.7383 108.953 13.4805 109.238C13.2227 109.523 12.9102 109.742 12.543 109.895C12.1797 110.043 11.7676 110.117 11.3066 110.117C10.877 110.117 10.4824 110.043 10.123 109.895C9.76758 109.742 9.45898 109.523 9.19727 109.238C8.93945 108.953 8.73828 108.604 8.59375 108.189C8.45312 107.775 8.38281 107.305 8.38281 106.777C8.38281 106.074 8.50195 105.477 8.74023 104.984C8.97852 104.488 9.31836 104.111 9.75977 103.854C10.2051 103.592 10.7344 103.461 11.3477 103.461C11.9336 103.461 12.4453 103.592 12.8828 103.854C13.3242 104.115 13.666 104.494 13.9082 104.99C14.1543 105.482 14.2773 106.078 14.2773 106.777ZM9.39062 106.777C9.39062 107.293 9.45898 107.74 9.5957 108.119C9.73242 108.498 9.94336 108.791 10.2285 108.998C10.5137 109.205 10.8809 109.309 11.3301 109.309C11.7754 109.309 12.1406 109.205 12.4258 108.998C12.7148 108.791 12.9277 108.498 13.0645 108.119C13.2012 107.74 13.2695 107.293 13.2695 106.777C13.2695 106.266 13.2012 105.824 13.0645 105.453C12.9277 105.078 12.7168 104.789 12.4316 104.586C12.1465 104.383 11.7773 104.281 11.3242 104.281C10.6562 104.281 10.166 104.502 9.85352 104.943C9.54492 105.385 9.39062 105.996 9.39062 106.777ZM21.2617 103.578V110H20.4648L20.3242 109.098H20.2715C20.1387 109.32 19.9668 109.508 19.7559 109.66C19.5449 109.812 19.3066 109.926 19.041 110C18.7793 110.078 18.5 110.117 18.2031 110.117C17.6953 110.117 17.2695 110.035 16.9258 109.871C16.582 109.707 16.3223 109.453 16.1465 109.109C15.9746 108.766 15.8887 108.324 15.8887 107.785V103.578H16.873V107.715C16.873 108.25 16.9941 108.65 17.2363 108.916C17.4785 109.178 17.8477 109.309 18.3438 109.309C18.8203 109.309 19.1992 109.219 19.4805 109.039C19.7656 108.859 19.9707 108.596 20.0957 108.248C20.2207 107.896 20.2832 107.467 20.2832 106.959V103.578H21.2617ZM26.2363 103.461C26.3652 103.461 26.5 103.469 26.6406 103.484C26.7812 103.496 26.9062 103.514 27.0156 103.537L26.8926 104.439C26.7871 104.412 26.6699 104.391 26.541 104.375C26.4121 104.359 26.291 104.352 26.1777 104.352C25.9199 104.352 25.6758 104.404 25.4453 104.51C25.2188 104.611 25.0195 104.76 24.8477 104.955C24.6758 105.146 24.541 105.379 24.4434 105.652C24.3457 105.922 24.2969 106.223 24.2969 106.555V110H23.3184V103.578H24.127L24.2324 104.762H24.2734C24.4062 104.523 24.5664 104.307 24.7539 104.111C24.9414 103.912 25.1582 103.754 25.4043 103.637C25.6543 103.52 25.9316 103.461 26.2363 103.461ZM35.5 108.242C35.5 108.652 35.3965 108.998 35.1895 109.279C34.9863 109.557 34.6934 109.766 34.3105 109.906C33.9316 110.047 33.4785 110.117 32.9512 110.117C32.502 110.117 32.1133 110.082 31.7852 110.012C31.457 109.941 31.1699 109.842 30.9238 109.713V108.816C31.1855 108.945 31.498 109.062 31.8613 109.168C32.2246 109.273 32.5957 109.326 32.9746 109.326C33.5293 109.326 33.9316 109.236 34.1816 109.057C34.4316 108.877 34.5566 108.633 34.5566 108.324C34.5566 108.148 34.5059 107.994 34.4043 107.861C34.3066 107.725 34.1406 107.594 33.9062 107.469C33.6719 107.34 33.3477 107.199 32.9336 107.047C32.5234 106.891 32.168 106.736 31.8672 106.584C31.5703 106.428 31.3398 106.238 31.1758 106.016C31.0156 105.793 30.9355 105.504 30.9355 105.148C30.9355 104.605 31.1543 104.189 31.5918 103.9C32.0332 103.607 32.6113 103.461 33.3262 103.461C33.7129 103.461 34.0742 103.5 34.4102 103.578C34.75 103.652 35.0664 103.754 35.3594 103.883L35.0312 104.662C34.7656 104.549 34.4824 104.453 34.1816 104.375C33.8809 104.297 33.5742 104.258 33.2617 104.258C32.8125 104.258 32.4668 104.332 32.2246 104.48C31.9863 104.629 31.8672 104.832 31.8672 105.09C31.8672 105.289 31.9219 105.453 32.0312 105.582C32.1445 105.711 32.3242 105.832 32.5703 105.945C32.8164 106.059 33.1406 106.191 33.543 106.344C33.9453 106.492 34.293 106.646 34.5859 106.807C34.8789 106.963 35.1035 107.154 35.2598 107.381C35.4199 107.604 35.5 107.891 35.5 108.242ZM39.1387 109.32C39.2988 109.32 39.4629 109.307 39.6309 109.279C39.7988 109.252 39.9355 109.219 40.041 109.18V109.936C39.9277 109.986 39.7695 110.029 39.5664 110.064C39.3672 110.1 39.1719 110.117 38.9805 110.117C38.6406 110.117 38.332 110.059 38.0547 109.941C37.7773 109.82 37.5547 109.617 37.3867 109.332C37.2227 109.047 37.1406 108.652 37.1406 108.148V104.34H36.2266V103.865L37.1465 103.484L37.5332 102.09H38.1191V103.578H40V104.34H38.1191V108.119C38.1191 108.521 38.2109 108.822 38.3945 109.021C38.582 109.221 38.8301 109.32 39.1387 109.32ZM46.6445 103.578V110H45.8477L45.707 109.098H45.6543C45.5215 109.32 45.3496 109.508 45.1387 109.66C44.9277 109.812 44.6895 109.926 44.4238 110C44.1621 110.078 43.8828 110.117 43.5859 110.117C43.0781 110.117 42.6523 110.035 42.3086 109.871C41.9648 109.707 41.7051 109.453 41.5293 109.109C41.3574 108.766 41.2715 108.324 41.2715 107.785V103.578H42.2559V107.715C42.2559 108.25 42.377 108.65 42.6191 108.916C42.8613 109.178 43.2305 109.309 43.7266 109.309C44.2031 109.309 44.582 109.219 44.8633 109.039C45.1484 108.859 45.3535 108.596 45.4785 108.248C45.6035 107.896 45.666 107.467 45.666 106.959V103.578H46.6445ZM50.9863 110.117C50.1738 110.117 49.5293 109.84 49.0527 109.285C48.5801 108.73 48.3438 107.906 48.3438 106.812C48.3438 105.707 48.5859 104.873 49.0703 104.311C49.5547 103.744 50.1992 103.461 51.0039 103.461C51.3438 103.461 51.6406 103.506 51.8945 103.596C52.1484 103.686 52.3672 103.807 52.5508 103.959C52.7344 104.107 52.8887 104.277 53.0137 104.469H53.084C53.0684 104.348 53.0527 104.182 53.0371 103.971C53.0215 103.76 53.0137 103.588 53.0137 103.455V100.883H53.9863V110H53.2012L53.0547 109.086H53.0137C52.8926 109.277 52.7383 109.451 52.5508 109.607C52.3672 109.764 52.1465 109.889 51.8887 109.982C51.6348 110.072 51.334 110.117 50.9863 110.117ZM51.1387 109.309C51.8262 109.309 52.3125 109.113 52.5977 108.723C52.8828 108.332 53.0254 107.752 53.0254 106.982V106.807C53.0254 105.99 52.8887 105.363 52.6152 104.926C52.3457 104.488 51.8535 104.27 51.1387 104.27C50.541 104.27 50.0938 104.5 49.7969 104.961C49.5 105.418 49.3516 106.043 49.3516 106.836C49.3516 107.625 49.498 108.234 49.791 108.664C50.0879 109.094 50.5371 109.309 51.1387 109.309ZM55.0352 103.578H56.0781L57.4961 107.305C57.5781 107.523 57.6543 107.734 57.7246 107.938C57.7949 108.137 57.8574 108.328 57.9121 108.512C57.9668 108.695 58.0098 108.873 58.041 109.045H58.082C58.1367 108.85 58.2148 108.594 58.3164 108.277C58.418 107.957 58.5273 107.631 58.6445 107.299L59.9863 103.578H61.0352L58.2402 110.943C58.0918 111.338 57.918 111.682 57.7188 111.975C57.5234 112.268 57.2852 112.492 57.0039 112.648C56.7227 112.809 56.3828 112.889 55.9844 112.889C55.8008 112.889 55.6387 112.877 55.498 112.854C55.3574 112.834 55.2363 112.811 55.1348 112.783V112.004C55.2207 112.023 55.3242 112.041 55.4453 112.057C55.5703 112.072 55.6992 112.08 55.832 112.08C56.0742 112.08 56.2832 112.033 56.459 111.939C56.6387 111.85 56.793 111.717 56.9219 111.541C57.0508 111.365 57.1621 111.156 57.2559 110.914L57.6074 110.012L55.0352 103.578ZM67.5801 103.473C68.3457 103.473 68.9141 103.645 69.2852 103.988C69.6562 104.332 69.8418 104.881 69.8418 105.635V110H69.1328L68.9453 109.051H68.8984C68.7188 109.285 68.5312 109.482 68.3359 109.643C68.1406 109.799 67.9141 109.918 67.6562 110C67.4023 110.078 67.0898 110.117 66.7188 110.117C66.3281 110.117 65.9805 110.049 65.6758 109.912C65.375 109.775 65.1367 109.568 64.9609 109.291C64.7891 109.014 64.7031 108.662 64.7031 108.236C64.7031 107.596 64.957 107.104 65.4648 106.76C65.9727 106.416 66.7461 106.229 67.7852 106.197L68.8926 106.15V105.758C68.8926 105.203 68.7734 104.814 68.5352 104.592C68.2969 104.369 67.9609 104.258 67.5273 104.258C67.1914 104.258 66.8711 104.307 66.5664 104.404C66.2617 104.502 65.9727 104.617 65.6992 104.75L65.4004 104.012C65.6895 103.863 66.0215 103.736 66.3965 103.631C66.7715 103.525 67.166 103.473 67.5801 103.473ZM68.8809 106.836L67.9023 106.877C67.1016 106.908 66.5371 107.039 66.209 107.27C65.8809 107.5 65.7168 107.826 65.7168 108.248C65.7168 108.615 65.8281 108.887 66.0508 109.062C66.2734 109.238 66.5684 109.326 66.9355 109.326C67.5059 109.326 67.9727 109.168 68.3359 108.852C68.6992 108.535 68.8809 108.061 68.8809 107.428V106.836ZM76 108.242C76 108.652 75.8965 108.998 75.6895 109.279C75.4863 109.557 75.1934 109.766 74.8105 109.906C74.4316 110.047 73.9785 110.117 73.4512 110.117C73.002 110.117 72.6133 110.082 72.2852 110.012C71.957 109.941 71.6699 109.842 71.4238 109.713V108.816C71.6855 108.945 71.998 109.062 72.3613 109.168C72.7246 109.273 73.0957 109.326 73.4746 109.326C74.0293 109.326 74.4316 109.236 74.6816 109.057C74.9316 108.877 75.0566 108.633 75.0566 108.324C75.0566 108.148 75.0059 107.994 74.9043 107.861C74.8066 107.725 74.6406 107.594 74.4062 107.469C74.1719 107.34 73.8477 107.199 73.4336 107.047C73.0234 106.891 72.668 106.736 72.3672 106.584C72.0703 106.428 71.8398 106.238 71.6758 106.016C71.5156 105.793 71.4355 105.504 71.4355 105.148C71.4355 104.605 71.6543 104.189 72.0918 103.9C72.5332 103.607 73.1113 103.461 73.8262 103.461C74.2129 103.461 74.5742 103.5 74.9102 103.578C75.25 103.652 75.5664 103.754 75.8594 103.883L75.5312 104.662C75.2656 104.549 74.9824 104.453 74.6816 104.375C74.3809 104.297 74.0742 104.258 73.7617 104.258C73.3125 104.258 72.9668 104.332 72.7246 104.48C72.4863 104.629 72.3672 104.832 72.3672 105.09C72.3672 105.289 72.4219 105.453 72.5312 105.582C72.6445 105.711 72.8242 105.832 73.0703 105.945C73.3164 106.059 73.6406 106.191 74.043 106.344C74.4453 106.492 74.793 106.646 75.0859 106.807C75.3789 106.963 75.6035 107.154 75.7598 107.381C75.9199 107.604 76 107.891 76 108.242ZM81.7188 108.242C81.7188 108.652 81.6152 108.998 81.4082 109.279C81.2051 109.557 80.9121 109.766 80.5293 109.906C80.1504 110.047 79.6973 110.117 79.1699 110.117C78.7207 110.117 78.332 110.082 78.0039 110.012C77.6758 109.941 77.3887 109.842 77.1426 109.713V108.816C77.4043 108.945 77.7168 109.062 78.0801 109.168C78.4434 109.273 78.8145 109.326 79.1934 109.326C79.748 109.326 80.1504 109.236 80.4004 109.057C80.6504 108.877 80.7754 108.633 80.7754 108.324C80.7754 108.148 80.7246 107.994 80.623 107.861C80.5254 107.725 80.3594 107.594 80.125 107.469C79.8906 107.34 79.5664 107.199 79.1523 107.047C78.7422 106.891 78.3867 106.736 78.0859 106.584C77.7891 106.428 77.5586 106.238 77.3945 106.016C77.2344 105.793 77.1543 105.504 77.1543 105.148C77.1543 104.605 77.373 104.189 77.8105 103.9C78.252 103.607 78.8301 103.461 79.5449 103.461C79.9316 103.461 80.293 103.5 80.6289 103.578C80.9688 103.652 81.2852 103.754 81.5781 103.883L81.25 104.662C80.9844 104.549 80.7012 104.453 80.4004 104.375C80.0996 104.297 79.793 104.258 79.4805 104.258C79.0312 104.258 78.6855 104.332 78.4434 104.48C78.2051 104.629 78.0859 104.832 78.0859 105.09C78.0859 105.289 78.1406 105.453 78.25 105.582C78.3633 105.711 78.543 105.832 78.7891 105.945C79.0352 106.059 79.3594 106.191 79.7617 106.344C80.1641 106.492 80.5117 106.646 80.8047 106.807C81.0977 106.963 81.3223 107.154 81.4785 107.381C81.6387 107.604 81.7188 107.891 81.7188 108.242ZM84.2559 103.578V110H83.2832V103.578H84.2559ZM83.7812 101.176C83.9414 101.176 84.0781 101.229 84.1914 101.334C84.3086 101.436 84.3672 101.596 84.3672 101.814C84.3672 102.029 84.3086 102.189 84.1914 102.295C84.0781 102.4 83.9414 102.453 83.7812 102.453C83.6133 102.453 83.4727 102.4 83.3594 102.295C83.25 102.189 83.1953 102.029 83.1953 101.814C83.1953 101.596 83.25 101.436 83.3594 101.334C83.4727 101.229 83.6133 101.176 83.7812 101.176ZM90.4727 108.242C90.4727 108.652 90.3691 108.998 90.1621 109.279C89.959 109.557 89.666 109.766 89.2832 109.906C88.9043 110.047 88.4512 110.117 87.9238 110.117C87.4746 110.117 87.0859 110.082 86.7578 110.012C86.4297 109.941 86.1426 109.842 85.8965 109.713V108.816C86.1582 108.945 86.4707 109.062 86.834 109.168C87.1973 109.273 87.5684 109.326 87.9473 109.326C88.502 109.326 88.9043 109.236 89.1543 109.057C89.4043 108.877 89.5293 108.633 89.5293 108.324C89.5293 108.148 89.4785 107.994 89.377 107.861C89.2793 107.725 89.1133 107.594 88.8789 107.469C88.6445 107.34 88.3203 107.199 87.9062 107.047C87.4961 106.891 87.1406 106.736 86.8398 106.584C86.543 106.428 86.3125 106.238 86.1484 106.016C85.9883 105.793 85.9082 105.504 85.9082 105.148C85.9082 104.605 86.127 104.189 86.5645 103.9C87.0059 103.607 87.584 103.461 88.2988 103.461C88.6855 103.461 89.0469 103.5 89.3828 103.578C89.7227 103.652 90.0391 103.754 90.332 103.883L90.0039 104.662C89.7383 104.549 89.4551 104.453 89.1543 104.375C88.8535 104.297 88.5469 104.258 88.2344 104.258C87.7852 104.258 87.4395 104.332 87.1973 104.48C86.959 104.629 86.8398 104.832 86.8398 105.09C86.8398 105.289 86.8945 105.453 87.0039 105.582C87.1172 105.711 87.2969 105.832 87.543 105.945C87.7891 106.059 88.1133 106.191 88.5156 106.344C88.918 106.492 89.2656 106.646 89.5586 106.807C89.8516 106.963 90.0762 107.154 90.2324 107.381C90.3926 107.604 90.4727 107.891 90.4727 108.242ZM94.1113 109.32C94.2715 109.32 94.4355 109.307 94.6035 109.279C94.7715 109.252 94.9082 109.219 95.0137 109.18V109.936C94.9004 109.986 94.7422 110.029 94.5391 110.064C94.3398 110.1 94.1445 110.117 93.9531 110.117C93.6133 110.117 93.3047 110.059 93.0273 109.941C92.75 109.82 92.5273 109.617 92.3594 109.332C92.1953 109.047 92.1133 108.652 92.1133 108.148V104.34H91.1992V103.865L92.1191 103.484L92.5059 102.09H93.0918V103.578H94.9727V104.34H93.0918V108.119C93.0918 108.521 93.1836 108.822 93.3672 109.021C93.5547 109.221 93.8027 109.32 94.1113 109.32ZM98.7168 103.473C99.4824 103.473 100.051 103.645 100.422 103.988C100.793 104.332 100.979 104.881 100.979 105.635V110H100.27L100.082 109.051H100.035C99.8555 109.285 99.668 109.482 99.4727 109.643C99.2773 109.799 99.0508 109.918 98.793 110C98.5391 110.078 98.2266 110.117 97.8555 110.117C97.4648 110.117 97.1172 110.049 96.8125 109.912C96.5117 109.775 96.2734 109.568 96.0977 109.291C95.9258 109.014 95.8398 108.662 95.8398 108.236C95.8398 107.596 96.0938 107.104 96.6016 106.76C97.1094 106.416 97.8828 106.229 98.9219 106.197L100.029 106.15V105.758C100.029 105.203 99.9102 104.814 99.6719 104.592C99.4336 104.369 99.0977 104.258 98.6641 104.258C98.3281 104.258 98.0078 104.307 97.7031 104.404C97.3984 104.502 97.1094 104.617 96.8359 104.75L96.5371 104.012C96.8262 103.863 97.1582 103.736 97.5332 103.631C97.9082 103.525 98.3027 103.473 98.7168 103.473ZM100.018 106.836L99.0391 106.877C98.2383 106.908 97.6738 107.039 97.3457 107.27C97.0176 107.5 96.8535 107.826 96.8535 108.248C96.8535 108.615 96.9648 108.887 97.1875 109.062C97.4102 109.238 97.7051 109.326 98.0723 109.326C98.6426 109.326 99.1094 109.168 99.4727 108.852C99.8359 108.535 100.018 108.061 100.018 107.428V106.836ZM106.023 103.461C106.785 103.461 107.361 103.648 107.752 104.023C108.143 104.395 108.338 104.992 108.338 105.816V110H107.377V105.881C107.377 105.346 107.254 104.945 107.008 104.68C106.766 104.414 106.393 104.281 105.889 104.281C105.178 104.281 104.678 104.482 104.389 104.885C104.1 105.287 103.955 105.871 103.955 106.637V110H102.982V103.578H103.768L103.914 104.504H103.967C104.104 104.277 104.277 104.088 104.488 103.936C104.699 103.779 104.936 103.662 105.197 103.584C105.459 103.502 105.734 103.461 106.023 103.461ZM112.416 109.32C112.576 109.32 112.74 109.307 112.908 109.279C113.076 109.252 113.213 109.219 113.318 109.18V109.936C113.205 109.986 113.047 110.029 112.844 110.064C112.645 110.1 112.449 110.117 112.258 110.117C111.918 110.117 111.609 110.059 111.332 109.941C111.055 109.82 110.832 109.617 110.664 109.332C110.5 109.047 110.418 108.652 110.418 108.148V104.34H109.504V103.865L110.424 103.484L110.811 102.09H111.396V103.578H113.277V104.34H111.396V108.119C111.396 108.521 111.488 108.822 111.672 109.021C111.859 109.221 112.107 109.32 112.416 109.32Z" fill="white"/>
<defs>
<clipPath id="clip0_0_1">
<rect width="60" height="60" fill="white" transform="translate(178.27) rotate(50.4168)"/>
</clipPath>
</defs>
</svg>
