<svg width="86" height="85" viewBox="0 0 86 85" fill="none" xmlns="http://www.w3.org/2000/svg">
<path d="M20 28C20 23.5817 23.5817 20 28 20H58C62.4183 20 66 23.5817 66 28V57C66 61.4183 62.4183 65 58 65H28C23.5817 65 20 61.4183 20 57V28Z" fill="#223558"/>
<path d="M35.5658 33.1646C34.6591 32.7699 33.8897 32.1153 33.355 31.2834C32.8203 30.4515 32.5443 29.4797 32.5619 28.491C32.5795 27.5022 32.8899 26.5409 33.4538 25.7286C34.0178 24.9162 34.81 24.2893 35.7302 23.9272C36.6504 23.5651 37.6573 23.484 38.6236 23.6941C39.59 23.9043 40.4723 24.3963 41.159 25.1078C41.8457 25.8194 42.306 26.7187 42.4816 27.6919C42.6572 28.6651 42.5404 29.6685 42.1457 30.5752C41.6165 31.7911 40.626 32.747 39.392 33.2326C38.1581 33.7182 36.7817 33.6937 35.5658 33.1646ZM38.2262 27.0517C37.924 26.9202 37.5895 26.8812 37.2651 26.9398C36.9407 26.9983 36.6409 27.1517 36.4037 27.3806C36.1665 27.6095 36.0026 27.9036 35.9325 28.2257C35.8625 28.5479 35.8895 28.8835 36.0102 29.1902C36.1309 29.497 36.3399 29.761 36.6106 29.949C36.8814 30.137 37.2019 30.2405 37.5315 30.2463C37.861 30.2522 38.185 30.1602 38.4623 29.982C38.7396 29.8037 38.9578 29.5473 39.0893 29.245C39.2657 28.8397 39.2739 28.3809 39.112 27.9696C38.9501 27.5583 38.6315 27.2281 38.2262 27.0517Z" fill="white"/>
<path d="M40.7445 46.3244C39.8377 45.9298 39.0684 45.2751 38.5337 44.4432C37.999 43.6113 37.723 42.6396 37.7406 41.6508C37.7582 40.6621 38.0685 39.7007 38.6325 38.8884C39.1964 38.0761 39.9886 37.4492 40.9088 37.0871C41.8291 36.7249 42.836 36.6438 43.8023 36.854C44.7686 37.0641 45.6509 37.5561 46.3376 38.2677C47.0244 38.9793 47.4846 39.8785 47.6603 40.8517C47.8359 41.8249 47.719 42.8283 47.3244 43.7351C46.7952 44.951 45.8047 45.9069 44.5707 46.3925C43.3367 46.8781 41.9604 46.8536 40.7445 46.3244ZM43.4049 40.2116C43.1026 40.08 42.7681 40.0411 42.4437 40.0996C42.1194 40.1581 41.8196 40.3116 41.5824 40.5405C41.3452 40.7694 41.1812 41.0635 41.1112 41.3856C41.0411 41.7077 41.0682 42.0433 41.1889 42.3501C41.3096 42.6568 41.5185 42.9209 41.7893 43.1089C42.0601 43.2968 42.3805 43.4003 42.7101 43.4062C43.0397 43.412 43.3636 43.32 43.6409 43.1418C43.9182 42.9636 44.1364 42.7071 44.268 42.4049C44.4444 41.9996 44.4525 41.5408 44.2907 41.1295C44.1288 40.7181 43.8102 40.388 43.4049 40.2116Z" fill="white"/>
<path d="M53.9043 41.1457C52.9976 40.7511 52.2282 40.0964 51.6935 39.2646C51.1588 38.4327 50.8828 37.4609 50.9004 36.4722C50.918 35.4834 51.2284 34.5221 51.7923 33.7097C52.3563 32.8974 53.1485 32.2705 54.0687 31.9084C54.9889 31.5463 55.9958 31.4652 56.9621 31.6753C57.9285 31.8855 58.8108 32.3774 59.4975 33.089C60.1842 33.8006 60.6445 34.6999 60.8201 35.673C60.9958 36.6462 60.8789 37.6496 60.4842 38.5564C59.9551 39.7723 58.9645 40.7282 57.7305 41.2138C56.4966 41.6994 55.1202 41.6749 53.9043 41.1457ZM56.5647 35.0329C56.2625 34.9014 55.928 34.8624 55.6036 34.9209C55.2792 34.9795 54.9794 35.1329 54.7423 35.3618C54.5051 35.5907 54.3411 35.8848 54.271 36.2069C54.201 36.529 54.228 36.8647 54.3487 37.1714C54.4694 37.4782 54.6784 37.7422 54.9492 37.9302C55.2199 38.1182 55.5404 38.2216 55.87 38.2275C56.1995 38.2334 56.5235 38.1414 56.8008 37.9631C57.0781 37.7849 57.2963 37.5285 57.4278 37.2262C57.6042 36.8209 57.6124 36.3621 57.4505 35.9508C57.2886 35.5395 56.97 35.2093 56.5647 35.0329Z" fill="white"/>
<path d="M45.9231 59.4842C45.0164 59.0896 44.247 58.4349 43.7123 57.6031C43.1776 56.7712 42.9016 55.7994 42.9192 54.8107C42.9368 53.8219 43.2472 52.8606 43.8112 52.0482C44.3751 51.2359 45.1673 50.609 46.0875 50.2469C47.0077 49.8848 48.0146 49.8037 48.981 50.0138C49.9473 50.224 50.8296 50.7159 51.5163 51.4275C52.203 52.1391 52.6633 53.0384 52.8389 54.0116C53.0146 54.9847 52.8977 55.9881 52.5031 56.8949C51.9739 58.1108 50.9833 59.0667 49.7494 59.5523C48.5154 60.0379 47.1391 60.0134 45.9231 59.4842ZM48.5835 53.3714C48.2813 53.2399 47.9468 53.2009 47.6224 53.2594C47.298 53.318 46.9983 53.4714 46.7611 53.7003C46.5239 53.9292 46.3599 54.2233 46.2898 54.5454C46.2198 54.8675 46.2468 55.2032 46.3675 55.5099C46.4882 55.8167 46.6972 56.0807 46.968 56.2687C47.2388 56.4567 47.5592 56.5601 47.8888 56.566C48.2184 56.5719 48.5423 56.4799 48.8196 56.3016C49.0969 56.1234 49.3151 55.867 49.4466 55.5647C49.623 55.1594 49.6312 54.7006 49.4693 54.2893C49.3075 53.878 48.9888 53.5478 48.5835 53.3714Z" fill="white"/>
<path d="M27.5846 51.5031C26.6779 51.1084 25.9085 50.4538 25.3738 49.6219C24.8391 48.79 24.5631 47.8182 24.5807 46.8295C24.5983 45.8407 24.9087 44.8794 25.4727 44.0671C26.0366 43.2547 26.8288 42.6278 27.749 42.2657C28.6692 41.9036 29.6761 41.8225 30.6425 42.0326C31.6088 42.2428 32.4911 42.7348 33.1778 43.4463C33.8645 44.1579 34.3248 45.0572 34.5004 46.0304C34.6761 47.0036 34.5592 48.007 34.1646 48.9137C33.6354 50.1296 32.6448 51.0855 31.4109 51.5711C30.1769 52.0567 28.8005 52.0322 27.5846 51.5031ZM30.245 45.3902C29.9428 45.2587 29.6083 45.2197 29.2839 45.2783C28.9595 45.3368 28.6598 45.4902 28.4226 45.7191C28.1854 45.948 28.0214 46.2421 27.9513 46.5642C27.8813 46.8864 27.9083 47.222 28.029 47.5287C28.1497 47.8355 28.3587 48.0995 28.6295 48.2875C28.9002 48.4755 29.2207 48.579 29.5503 48.5848C29.8799 48.5907 30.2038 48.4987 30.4811 48.3205C30.7584 48.1422 30.9766 47.8858 31.1081 47.5835C31.2845 47.1782 31.2927 46.7194 31.1308 46.3081C30.969 45.8968 30.6503 45.5666 30.245 45.3902Z" fill="white"/>
<path d="M40.2273 30.8105L37.1255 32.0311L40.0733 39.522L43.1751 38.3013L40.2273 30.8105Z" fill="white"/>
<path d="M52.4652 36.1189L44.9743 39.0667L46.1949 42.1685L53.6858 39.2207L52.4652 36.1189Z" fill="white"/>
<path d="M39.3018 41.3057L31.811 44.2535L33.0316 47.3553L40.5224 44.4075L39.3018 41.3057Z" fill="white"/>
<path d="M45.414 43.9738L42.3122 45.1945L45.26 52.6853L48.3618 51.4647L45.414 43.9738Z" fill="white"/>
</svg>
