<svg xmlns="http://www.w3.org/2000/svg" version="1.1" xmlns:xlink="http://www.w3.org/1999/xlink" xmlns:svgjs="http://svgjs.dev/svgjs" width="1440" height="560" preserveAspectRatio="none" viewBox="0 0 1440 560"><g mask="url(&quot;#SvgjsMask1043&quot;)" fill="none"><rect width="1440" height="560" x="0" y="0" fill="rgba(19, 8, 123, 1)"></rect><path d="M -194.50690626211295,193 C -136.91,228.6 -21.71,355.4 93.49309373788705,371 C 208.69,386.6 266.29,271.4 381.4930937378871,271 C 496.69,270.6 554.29,393 669.4930937378871,369 C 784.69,345 842.29,126.2 957.4930937378871,151 C 1072.69,175.8 1130.29,497.6 1245.493093737887,493 C 1360.69,488.4 1494.59,157.4 1533.493093737887,128 C 1572.39,98.6 1458.7,302.4 1440,346" stroke="rgba(133, 132, 203, 1)" stroke-width="2"></path><path d="M -572.3951516188714,313 C -514.8,263.2 -399.6,53.4 -284.3951516188714,64 C -169.2,74.6 -111.6,341.4 3.6048483811285905,366 C 118.8,390.6 176.4,181.4 291.6048483811286,187 C 406.8,192.6 464.4,418.2 579.6048483811286,394 C 694.8,369.8 752.4,44.8 867.6048483811286,66 C 982.8,87.2 1041.13,462.8 1155.6048483811287,500 C 1270.08,537.2 1383.12,301.6 1440,252" stroke="rgba(133, 132, 203, 1)" stroke-width="2"></path><path d="M -565.2251682081867,503 C -507.63,444 -392.43,228.4 -277.22516820818674,208 C -162.03,187.6 -104.43,394.6 10.774831791813256,401 C 125.97,407.4 183.57,254 298.77483179181326,240 C 413.97,226 471.57,364 586.7748317918133,331 C 701.97,298 759.57,76.8 874.7748317918133,75 C 989.97,73.2 1049.73,281.4 1162.7748317918133,322 C 1275.82,362.6 1384.55,286.8 1440,278" stroke="rgba(133, 132, 203, 1)" stroke-width="2"></path></g><defs><mask id="SvgjsMask1043"><rect width="1440" height="560" fill="#ffffff"></rect></mask></defs></svg>