<?xml version="1.0" standalone="no"?>
<svg xmlns:xlink="http://www.w3.org/1999/xlink" id="wave" style="transform:rotate(180deg); transition: 0.3s" viewBox="0 0 1440 460" version="1.1" xmlns="http://www.w3.org/2000/svg"><defs><linearGradient id="sw-gradient-0" x1="0" x2="0" y1="1" y2="0"><stop stop-color="rgba(19, 8, 123, 1)" offset="0%"/><stop stop-color="rgba(133, 132, 203, 1)" offset="100%"/></linearGradient></defs><path style="transform:translate(0, 0px); opacity:1" fill="url(#sw-gradient-0)" d="M0,184L21.8,191.7C43.6,199,87,215,131,191.7C174.5,169,218,107,262,107.3C305.5,107,349,169,393,191.7C436.4,215,480,199,524,222.3C567.3,245,611,307,655,322C698.2,337,742,307,785,245.3C829.1,184,873,92,916,84.3C960,77,1004,153,1047,161C1090.9,169,1135,107,1178,92C1221.8,77,1265,107,1309,153.3C1352.7,199,1396,261,1440,253C1483.6,245,1527,169,1571,145.7C1614.5,123,1658,153,1702,199.3C1745.5,245,1789,307,1833,322C1876.4,337,1920,307,1964,253C2007.3,199,2051,123,2095,92C2138.2,61,2182,77,2225,138C2269.1,199,2313,307,2356,329.7C2400,353,2444,291,2487,253C2530.9,215,2575,199,2618,191.7C2661.8,184,2705,184,2749,184C2792.7,184,2836,184,2880,191.7C2923.6,199,2967,215,3011,237.7C3054.5,261,3098,291,3120,306.7L3141.8,322L3141.8,460L3120,460C3098.2,460,3055,460,3011,460C2967.3,460,2924,460,2880,460C2836.4,460,2793,460,2749,460C2705.5,460,2662,460,2618,460C2574.5,460,2531,460,2487,460C2443.6,460,2400,460,2356,460C2312.7,460,2269,460,2225,460C2181.8,460,2138,460,2095,460C2050.9,460,2007,460,1964,460C1920,460,1876,460,1833,460C1789.1,460,1745,460,1702,460C1658.2,460,1615,460,1571,460C1527.3,460,1484,460,1440,460C1396.4,460,1353,460,1309,460C1265.5,460,1222,460,1178,460C1134.5,460,1091,460,1047,460C1003.6,460,960,460,916,460C872.7,460,829,460,785,460C741.8,460,698,460,655,460C610.9,460,567,460,524,460C480,460,436,460,393,460C349.1,460,305,460,262,460C218.2,460,175,460,131,460C87.3,460,44,460,22,460L0,460Z"/></svg>